<svg width="184" height="211" viewBox="0 0 184 211" fill="none" xmlns="http://www.w3.org/2000/svg">
<path d="M178.309 7.05139C160.796 -11.2784 98.5095 9.72557 95.9563 32.8449C94.3671 47.2622 117.111 52.6504 115.855 67.4779C113.68 92.9361 44.64 100.593 44.8552 122.351C44.9557 131.856 58.1479 133.306 58.3483 143.436C58.7648 164.992 -0.734855 175.654 0.439187 196.823C0.780714 202.974 6.08578 206.942 6.86575 207.519C20.4012 217.634 47.1421 200.64 53.8612 196.384C64.8523 189.409 78.8461 180.51 83.4844 164.445C87.8592 149.266 79.303 143.533 84.7853 132.334C90.1547 121.378 99.9191 123.642 122.535 109.368C135.326 101.295 153.198 90.0044 153.681 75.0194C153.956 66.2392 147.985 65.2671 148.851 57.702C150.799 40.8045 181.581 38.1692 183.56 21.4071C184.476 13.677 178.719 7.47023 178.309 7.05139Z" fill="#F5E211"/>
</svg>
