<svg width="154" height="192" viewBox="0 0 154 192" fill="none" xmlns="http://www.w3.org/2000/svg">
<g clip-path="url(#clip0_8478_12419)">
<path d="M108.316 63.2272C110.463 58.8795 112.616 54.516 114.79 50.1367C116.334 47.0229 117.526 43.8881 118.124 40.559C119.358 33.7171 117.899 26.7701 112.758 22.7689C108.221 19.3085 101.726 18.0851 95.451 19.2928C90.5729 20.2274 86.0938 22.6429 82.623 26.287C80.5961 28.4084 78.9631 30.9078 78.2594 33.5805C77.435 36.7153 77.8761 39.9026 79.3096 42.5596C80.8061 45.3636 83.4053 47.485 86.6504 48.3199C89.8587 49.1548 93.6604 48.8922 96.853 47.1647C101.81 44.4709 103.133 39.01 103.616 34.1949C104.183 28.5606 103.789 22.8476 105.538 17.1976C106.898 12.8184 109.807 9.09547 114.176 6.85333C119.516 4.0966 125.639 3.70278 131.073 3.80254C133.247 3.84455 135.395 4.00733 137.516 4.23312C138.383 4.32764 138.897 2.9519 138.025 2.86263C131.619 2.19051 124.709 1.96472 117.988 3.98108C114.202 5.11002 110.5 7.11063 107.859 10.2087C103.963 14.777 103.144 20.5162 102.781 25.7357C102.592 28.4346 102.529 31.1283 102.282 33.8326C102.062 36.2585 101.71 38.7527 100.697 41.1051C99.7357 43.342 98.0659 45.1746 95.8238 46.2668C92.6102 47.821 88.6563 47.8158 85.6842 46.5661C79.8715 44.1559 77.4981 37.0146 80.6381 31.0968C82.6282 27.3529 86.3144 24.0396 90.3366 22.2175C96.1546 19.5606 102.886 19.5816 108.106 21.7555C110.689 22.8476 112.989 24.5069 114.543 26.7753C116.36 29.4533 117.195 32.7509 117.174 36.185C117.153 39.4248 116.476 42.7381 115.278 45.9149C114.664 47.548 113.871 49.1075 113.094 50.6775C112.081 52.7254 111.067 54.7733 110.059 56.8106C109.051 58.848 108.048 60.8801 107.05 62.9122C106.651 63.7208 107.922 64.0359 108.316 63.2325V63.2272Z" fill="#2C2E2A"/>
<path d="M152.707 121.256C150.029 99.8897 136.088 82.6824 117.379 72.5061C115.62 71.5819 114.948 69.3976 115.84 67.3969C117.804 63.0019 116.512 58.0766 112.606 56.1285C107.932 53.8338 101.873 56.4645 99.6569 61.4634L99.5572 61.6892C98.6855 63.6583 96.5326 64.803 94.5373 64.3882C73.0348 60.0667 49.9307 62.7761 32.5764 74.1549C11.6935 87.4922 -5.38254 116.425 1.59069 129.463C4.50495 135.081 10.7588 136.888 11.0318 136.966C18.9397 139.161 28.7222 133.91 36.1155 123.388C41.7025 130.245 50.6921 132.865 58.9518 129.899C66.2821 127.226 70.4303 121.072 72.5464 116.703C75.3242 118.515 78.627 120.384 82.4864 122.043C86.3353 123.713 89.9532 124.821 93.1825 125.582C91.413 130.24 89.7169 137.66 92.6417 145.121C95.913 153.685 103.674 158.879 112.375 158.154C109.266 172.153 111.503 184.361 118.014 189.376C118.24 189.554 123.412 193.482 129.43 191.403C143.691 186.346 155.758 147.857 152.702 121.261L152.707 121.256Z" fill="#2BA0FF"/>
<path d="M61.5195 112.947C59.1356 118.55 52.7032 121.202 47.1109 118.918C41.4977 116.665 38.7725 110.448 41.0671 104.971C43.3828 99.4681 49.9097 96.6798 55.6122 98.8012C61.2937 100.954 63.9244 107.308 61.5195 112.942V112.947Z" fill="#2C2E2A"/>
<path d="M121.648 139.433C118.996 145.43 112.522 148.129 107.161 145.519C101.773 142.935 99.4574 136.135 102.02 130.265C104.603 124.368 111.172 121.533 116.644 123.98C122.099 126.463 124.321 133.4 121.648 139.428V139.433Z" fill="#2C2E2A"/>
<path d="M107.974 91.0627C105.328 97.0435 98.6593 100.037 93.0355 97.7996C87.3908 95.5942 84.8546 89.0988 87.4118 83.2493C89.99 77.3683 96.7532 74.2387 102.487 76.3128C108.2 78.4185 110.642 85.0504 107.974 91.0627Z" fill="#2C2E2A"/>
<path d="M107.974 91.0627C105.328 97.0435 98.6593 100.037 93.0355 97.7996C87.3908 95.5942 84.8546 89.0988 87.4118 83.2493C89.99 77.3683 96.7532 74.2387 102.487 76.3128C108.2 78.4185 110.642 85.0504 107.974 91.0627Z" fill="#F5F1E4"/>
<path d="M103.506 89.3239C102.025 92.6845 98.255 94.3858 95.0729 93.1465C91.8856 91.9126 90.4678 88.2422 91.9224 84.9236C93.3821 81.5945 97.1838 79.8512 100.403 81.0432C103.611 82.2456 104.997 85.9633 103.511 89.3291L103.506 89.3239Z" fill="#8ED462"/>
<path d="M142.499 7.34686L135.221 6.68524C134.024 6.58023 133.315 5.49328 133.651 4.26982L134.266 2.05393C134.607 0.830465 135.867 -0.0884469 137.075 0.0113206L144.39 0.620428C145.592 0.725446 146.29 1.82289 145.944 3.05686L145.314 5.299C144.967 6.53297 143.702 7.45188 142.504 7.34161L142.499 7.34686Z" fill="#2C2E2A"/>
<path d="M36.5828 122.968C35.5589 121.608 34.7503 120.059 34.2094 118.499C34.0992 118.179 33.7894 117.953 33.4323 118.037C33.1172 118.105 32.8494 118.457 32.9597 118.778C33.5846 120.579 34.4825 122.259 35.6482 123.803C35.853 124.076 36.3203 124.055 36.5513 123.845C36.8296 123.598 36.7876 123.241 36.5828 122.968Z" fill="#2C2E2A"/>
<path d="M112.48 158.826C115.499 158.6 118.471 157.629 121.154 155.969C121.868 155.528 121.364 154.273 120.645 154.72C118.04 156.332 115.2 157.25 112.27 157.471C111.934 157.497 111.703 157.944 111.755 158.274C111.818 158.673 112.133 158.847 112.474 158.821L112.48 158.826Z" fill="#2C2E2A"/>
<path d="M40.122 77.1528C40.6314 78.8121 45.814 78.6966 51.7161 76.8693C57.6391 75.0157 62.0656 72.1172 61.5878 70.4159C61.1047 68.7199 55.8801 68.8984 49.9255 70.794C43.992 72.6633 39.6074 75.4988 40.1168 77.1528H40.122Z" fill="#F5F1E4"/>
<path d="M33.1488 81.0859C33.6634 81.8736 35.0339 81.9576 36.2153 81.2645C37.3968 80.5713 37.9376 79.3636 37.423 78.5707C36.9084 77.7778 35.5327 77.7043 34.3512 78.4027C33.1698 79.0958 32.6342 80.2983 33.1488 81.0859Z" fill="#F5F1E4"/>
<path d="M93.944 125.219C93.9965 125.103 93.923 125.256 93.9597 125.187C93.9807 125.14 94.007 125.098 94.028 125.051C94.07 124.972 94.112 124.893 94.1593 124.814C94.2485 124.657 94.343 124.499 94.4376 124.347C94.6423 124.027 94.8681 123.717 95.1097 123.423C95.1149 123.412 95.1937 123.318 95.1517 123.37C95.0992 123.433 95.2042 123.313 95.2147 123.297C95.2725 123.229 95.3355 123.16 95.3985 123.097C95.5297 122.961 95.661 122.824 95.7975 122.693C96.0706 122.431 96.3646 122.189 96.6692 121.963C96.9475 121.753 96.9633 121.254 96.748 121.018C96.4907 120.74 96.1389 120.755 95.8395 120.981C94.5111 121.968 93.4661 123.302 92.7468 124.809C92.5945 125.13 92.8255 125.56 93.1301 125.649C93.4924 125.754 93.7917 125.56 93.9545 125.219H93.944Z" fill="#2C2E2A"/>
<path d="M73.145 116.582C73.8539 115.275 74.2792 113.841 74.3685 112.366C74.3895 112.024 74.1164 111.688 73.7646 111.693C73.4128 111.693 73.0978 111.961 73.0768 112.324C73.0032 113.563 72.6619 114.807 72.0791 115.884C71.9163 116.183 71.9373 116.598 72.2524 116.782C72.5307 116.944 72.9717 116.902 73.145 116.582Z" fill="#2C2E2A"/>
</g>
<defs>
<clipPath id="clip0_8478_12419">
<rect width="153.175" height="192" fill="white" transform="translate(0.00488281 0.00585938)"/>
</clipPath>
</defs>
</svg>
