<?xml version="1.0" encoding="UTF-8"?>
<svg id="Layer_1" data-name="Layer 1" xmlns="http://www.w3.org/2000/svg" version="1.1" viewBox="0 0 533 537">
  <defs>
    <style>
      .cls-1 {
        fill: none;
        stroke: #000;
        stroke-linecap: round;
        stroke-width: 1.5px;
      }

      .cls-2 {
        fill: #fff;
      }

      .cls-2, .cls-3 {
        stroke-width: 0px;
      }

      .cls-3 {
        fill: #2c2e2a;
      }
    </style>
  </defs>
  <path class="cls-1" d="M61.5,304.9c-5.5-17,0-48,8.5-61"/>
  <path class="cls-2" d="M351.7,110.9c-11.2,3.7-19.1,10.1-17.7,14.5.1.3.2.6.4.9.9,1.2,0,3-1.4,3.4-1.5.4-3,.8-4.5,1.3-13,4.3-22.2,11.8-20.6,16.8s13.5,5.7,26.6,1.4c13-4.3,22.2-11.8,20.6-16.8-.2-.6-.6-1.2-1.1-1.7-1.1-1.1-.8-2.9.7-3.4.7-.2,1.4-.4,2.1-.6,11.2-3.7,19.1-10.1,17.7-14.5-1.4-4.3-11.6-4.9-22.8-1.2h0Z"/>
  <circle class="cls-3" cx="224" cy="417.4" r="6"/>
  <circle class="cls-3" cx="528.5" cy="176.9" r="4.5"/>
  <path class="cls-2" d="M76.9,392.9c3.8,18.8,11.8,44.1,29.7,68.5,54.1,73.8,150,75.1,163.5,75-7.2-.8-17.9-3.1-27.2-10.7-11.3-9.3-13.4-20.5-21.9-21.6-3.8-.5-9.8.8-18.3,11.2-.6-15.8-11-26-19.9-25.6-7.3.3-12.2,7.7-13.2,9.2,1.2-32-14-53.6-28.4-54.6-9.7-.7-18.2,8.2-22.3,13.2,4.1-11.5-.2-22.5-7.6-25.8-5.8-2.6-12.1.3-13.7,1,1.5-4,2.7-9.3.3-14-2.1-4.2-5.7-5.2-9.9-8.7-3.7-3-8.1-8.2-11.2-17.2h0Z"/>
</svg>