<svg width="108" height="34" viewBox="0 0 108 34" fill="none" xmlns="http://www.w3.org/2000/svg">
<path d="M107.126 25.1928C108.927 21.5858 107.788 16.5118 105.147 13.2462C101.858 9.17741 96.893 8.78304 94.857 8.61952C88.5425 8.11453 84.6385 10.9857 80.8162 12.3949C63.7406 18.6808 49.0085 -4.55831 32.6724 1.83823C27.1598 3.99767 28.1346 6.74866 19.9282 10.1634C10.819 13.9532 4.6533 12.5344 1.89701 17.1466C0.182734 20.0179 0.576489 23.9039 1.89701 26.4914C5.9306 34.3836 20.4612 33.7344 25.6952 33.518C39.664 32.9456 40.0145 28.165 52.2641 26.9531C65.9351 25.5968 67.8751 32.1232 86.3912 31.7144C94.348 31.5365 104.134 31.1998 107.131 25.1928H107.126Z" fill="white"/>
</svg>
