<svg width="256" height="215" viewBox="0 0 256 215" fill="none" xmlns="http://www.w3.org/2000/svg">
<path d="M225.162 124.789C211.58 96.9332 207.768 76.1626 203.688 48.4482C203.014 43.8841 198.274 41.2961 194.234 42.6472L104.661 72.6605L102.978 67.162C102.352 65.1118 100.318 63.9489 98.4326 64.5673L48.1316 81.0359C46.2461 81.6544 45.2293 83.8121 45.8556 85.8623L47.6602 91.7641C43.1419 93.2765 38.6235 94.7889 34.1119 96.3081C30.5296 97.5113 28.4488 101.484 29.3377 105.477C32.5968 120.117 39.0882 140.874 52.5893 162.519C66.9389 185.528 83.6386 200.612 96.0422 209.807C101.2 213.632 107.624 214.781 113.503 212.913C160.895 197.809 208.287 182.698 255.686 167.594C244.03 157.497 233.269 141.392 225.175 124.795L225.162 124.789Z" fill="#2BA0FF"/>
<path d="M219.855 124.976C224.912 115.236 234.036 94.4184 233.134 66.8788C232.016 32.6308 216.078 8.82858 209.62 0.164062C174.901 4.08965 140.182 8.0085 105.462 11.9341C112.331 19.8995 120.849 32.0594 125.738 48.3331C138.236 89.9752 116.957 125.339 111.678 133.594C147.737 130.723 183.796 127.853 219.855 124.976Z" fill="white"/>
<path d="M255.699 167.505C238.259 161.361 216.751 151.944 193.708 137.229C177.076 126.609 163.13 115.457 151.757 105.153C148.733 102.41 144.707 101.395 140.963 102.417C95.9543 114.731 50.946 127.053 5.9444 139.367C0.853687 140.758 -1.0991 147.38 2.27451 151.876C11.9913 164.83 27.3914 181.695 49.8215 195.3C65.3899 204.744 80.1233 210.054 92.0757 213.106C99.7454 215.069 107.698 214.793 115.139 212.414C161.992 197.444 208.846 182.468 255.706 167.498L255.699 167.505Z" fill="#2BA0FF"/>
<path d="M255.18 166.517C240.763 161.435 226.777 155.204 213.337 147.924C197.371 139.273 182.159 129.211 167.944 117.911C164.793 115.404 161.689 112.836 158.632 110.215C157.177 108.971 155.743 107.707 154.309 106.437C152.874 105.166 151.568 103.836 149.925 102.901C148.282 101.967 146.45 101.416 144.572 101.295C142.572 101.167 140.727 101.698 138.821 102.216C134.559 103.385 130.296 104.548 126.034 105.718C112.607 109.394 99.1728 113.071 85.7457 116.742C71.5913 120.613 57.4438 124.485 43.2894 128.357C41.0942 128.955 38.899 129.56 36.7038 130.158C35.7678 130.414 36.1651 131.872 37.1078 131.617C51.8817 127.577 66.6555 123.531 81.4293 119.491C94.3716 115.948 107.307 112.406 120.249 108.87C124.222 107.781 128.202 106.692 132.175 105.61C134.417 104.998 136.666 104.38 138.909 103.768C140.882 103.231 142.76 102.646 144.834 102.834C146.807 103.009 148.706 103.782 150.302 104.945C151.804 106.034 153.137 107.425 154.531 108.648C157.48 111.25 160.484 113.797 163.527 116.284C177.372 127.604 192.173 137.754 207.741 146.56C221.343 154.256 235.545 160.891 250.204 166.329C251.726 166.894 253.248 167.445 254.783 167.982C255.705 168.305 256.103 166.847 255.187 166.524L255.18 166.517Z" fill="#2C2E2A"/>
</svg>
