<svg width="83" height="83" viewBox="0 0 83 83" fill="none" xmlns="http://www.w3.org/2000/svg">
<path d="M48.4091 61.4717C59.5361 57.5591 65.3845 45.3671 61.4718 34.24C57.5592 23.113 45.3671 17.2646 34.2401 21.1773C23.1131 25.0899 17.2647 37.2819 21.1774 48.409C25.09 59.536 37.282 65.3844 48.4091 61.4717Z" fill="#2BA0FF"/>
<path d="M35.1272 35.0252C37.4035 32.8267 37.9474 29.697 36.3419 28.0347C34.7365 26.3725 31.5897 26.8071 29.3134 29.0056C27.0371 31.2041 26.4932 34.3339 28.0987 35.9961C29.7041 37.6584 32.8508 37.2237 35.1272 35.0252Z" fill="white"/>
<path d="M53.3476 54.317C54.6477 53.0614 55.1964 51.5205 54.5733 50.8752C53.9501 50.23 52.391 50.7248 51.0909 51.9804C49.7909 53.236 49.2421 54.777 49.8653 55.4222C50.4885 56.0675 52.0476 55.5726 53.3476 54.317Z" fill="white"/>
</svg>
