<?xml version="1.0" encoding="utf-8"?>
<svg xmlns="http://www.w3.org/2000/svg" width="34" height="34" viewBox="0 0 34 34" fill="none">
<path d="M28.8012 5.98939C26.6004 4.95966 24.2471 4.21128 21.7868 3.78516C21.4846 4.33144 21.1316 5.0662 20.8882 5.6507C18.2729 5.25738 15.6816 5.25738 13.1143 5.6507C12.871 5.0662 12.51 4.33144 12.2051 3.78516C9.74214 4.21128 7.38615 4.9624 5.18527 5.99485C0.746077 12.7031 -0.457316 19.2446 0.144382 25.6933C3.08869 27.8921 5.94208 29.2277 8.74731 30.1018C9.43994 29.1485 10.0577 28.1352 10.5898 27.0672C9.57631 26.6821 8.60558 26.2069 7.68835 25.6551C7.93169 25.4748 8.16971 25.2864 8.39967 25.0924C13.9941 27.7091 20.0726 27.7091 25.6002 25.0924C25.8329 25.2864 26.0708 25.4748 26.3115 25.6551C25.3916 26.2096 24.4182 26.6848 23.4047 27.07C23.9368 28.1352 24.5519 29.1513 25.2472 30.1045C28.0551 29.2304 30.9112 27.8948 33.8555 25.6933C34.5615 18.2176 32.6494 11.7361 28.8012 5.98939ZM11.352 21.7274C9.67261 21.7274 8.29537 20.1596 8.29537 18.2504C8.29537 16.3412 9.6432 14.7707 11.352 14.7707C13.0608 14.7707 14.438 16.3385 14.4086 18.2504C14.4113 20.1596 13.0608 21.7274 11.352 21.7274ZM22.6479 21.7274C20.9685 21.7274 19.5912 20.1596 19.5912 18.2504C19.5912 16.3412 20.939 14.7707 22.6479 14.7707C24.3567 14.7707 25.7339 16.3385 25.7045 18.2504C25.7045 20.1596 24.3567 21.7274 22.6479 21.7274Z" fill="#5865F2"/>
</svg>