<?xml version="1.0" encoding="utf-8"?>
<svg xmlns="http://www.w3.org/2000/svg" width="28" height="29" viewBox="0 0 28 29" fill="none">
<path d="M1.00251 28.306C0.138423 27.7844 -0.236489 26.4967 0.154887 25.4534C0.236389 25.2252 1.52397 23.8234 3.00748 22.3563L5.69707 19.6668H3.5617C1.14922 19.6668 0.676667 19.5201 0.25269 18.6235C-0.236326 17.5805 0.0246455 16.2925 0.888411 15.6244C1.31222 15.2819 1.50783 15.2658 4.49083 15.2658C7.62053 15.2658 7.62053 15.2658 8.12585 15.6896C8.40295 15.9178 8.81047 16.4883 9.05498 16.9447C9.60919 18.0858 10.6524 19.129 11.6468 19.5854C12.5596 19.9929 13.0812 20.4982 13.3419 21.1829C13.4398 21.4435 13.5213 22.7802 13.5213 24.1983C13.5213 26.3174 13.4724 26.8553 13.2279 27.328C12.6574 28.4853 11.3043 28.9418 10.0167 28.4038C9.13648 28.0289 8.95717 27.491 8.95717 25.0948V23.0084L6.31649 25.649C4.84944 27.0835 3.49649 28.3549 3.30089 28.4527C2.73037 28.7461 1.60563 28.6646 1.00251 28.306ZM15.5263 28.3875C15.2329 28.2571 14.8417 27.9148 14.6624 27.6214C14.3689 27.1324 14.3363 26.8064 14.3363 24.1494C14.3363 20.6611 14.4178 20.4492 15.9338 19.6831C17.14 19.0801 18.1507 18.0695 18.7538 16.8631C19.5199 15.331 19.7318 15.2656 23.269 15.2656C26.5617 15.2656 26.9041 15.3471 27.442 16.2762C27.8006 16.8631 27.817 18.0041 27.4746 18.6561C27.002 19.5691 26.7084 19.6668 24.296 19.6668H22.0954L24.883 22.4867C27.8495 25.5023 28.0288 25.7795 27.7028 26.9857C27.4583 27.8985 26.741 28.5016 25.7956 28.5831C25.3718 28.632 24.8502 28.5994 24.6383 28.5179C24.4427 28.4364 23.0571 27.1813 21.5901 25.7143L18.9005 23.041V24.9481C18.9005 27.1487 18.7049 27.8007 17.8899 28.306C17.2704 28.6809 16.2761 28.7135 15.5263 28.3875ZM0.725405 13.7497C-0.220025 12.8042 -0.236326 11.2883 0.660203 10.3755L1.16568 9.88644H5.66447L2.99118 7.21315C1.52413 5.7461 0.25269 4.34426 0.154887 4.09975C-0.236326 3.05652 0.138586 1.76878 1.00251 1.24716C1.60547 0.888547 2.74651 0.807045 3.30089 1.11675C3.49649 1.21456 4.83314 2.4697 6.26759 3.88784L8.87567 6.47963L8.95717 4.31166C9.05498 1.85028 9.21798 1.39386 10.2123 1.06785C11.5164 0.64404 12.8039 1.16566 13.2929 2.33929C13.5701 2.99132 13.6027 7.66957 13.3419 8.37049C13.0973 9.02251 12.5759 9.52783 11.777 9.88644C10.799 10.3103 9.57643 11.5165 9.07111 12.5597C8.8266 13.0324 8.40263 13.6356 8.12552 13.8638L7.6202 14.2876H1.26332L0.725405 13.7497ZM19.7644 13.9616C19.4384 13.766 19.0472 13.2769 18.7538 12.6901C18.1507 11.4839 17.1402 10.4733 15.9338 9.87014C14.4178 9.10401 14.3363 8.89211 14.3363 5.40379C14.3363 2.74681 14.3689 2.4208 14.6624 1.93178C15.2655 0.953749 16.8465 0.611438 17.8899 1.24716C18.7049 1.75248 18.9005 2.4045 18.9005 4.62137V6.54483L21.6716 3.77374L24.4427 1.00265H25.4857C26.4313 1.00265 26.5943 1.05155 27.0508 1.49167C27.3116 1.75248 27.6213 2.24149 27.7191 2.6001C28.0288 3.74114 27.7517 4.18125 24.8014 7.16425L22.0954 9.88644H26.6106L27.1486 10.4733C28.1266 11.5002 27.8985 13.3259 26.7247 14.0268C26.3498 14.2387 25.7467 14.2876 23.269 14.2876C20.5957 14.2876 20.2371 14.255 19.7644 13.9616Z" fill="#00A777"/>
</svg>