<?xml version="1.0" encoding="utf-8"?>
<svg xmlns="http://www.w3.org/2000/svg" width="36" height="36" viewBox="0 0 36 36" fill="none">
<g clip-path="url(#clip0_8726_9636)">
<path d="M30.9916 29.0652C16.4189 36.0006 7.3749 30.198 1.58555 26.6736C1.2273 26.4514 0.618415 26.7255 1.14671 27.3323C3.07543 29.6709 9.39626 35.3077 17.6468 35.3077C25.903 35.3077 30.8147 30.8027 31.4291 30.0168C32.0394 29.2376 31.6083 28.8078 30.9915 29.0652H30.9916ZM35.0844 26.805C34.693 26.2954 32.7047 26.2004 31.4535 26.3541C30.2002 26.5034 28.3191 27.2693 28.4827 27.7292C28.5666 27.9014 28.7379 27.8242 29.5988 27.7468C30.4621 27.6606 32.8805 27.3554 33.3844 28.0142C33.8907 28.6775 32.6131 31.8373 32.3797 32.3469C32.1543 32.8565 32.4659 32.9879 32.8893 32.6485C33.307 32.3092 34.0631 31.4306 34.5705 30.1872C35.0744 28.937 35.3818 27.193 35.0844 26.805Z" fill="#FF9900"/>
<path fill-rule="evenodd" clip-rule="evenodd" d="M21.1931 14.913C21.1931 16.7327 21.2391 18.2503 20.3193 19.8663C19.5769 21.1804 18.4009 21.9884 17.0871 21.9884C15.2935 21.9884 14.249 20.6219 14.249 18.6051C14.249 14.6238 17.8162 13.9013 21.1931 13.9013V14.913ZM25.9034 26.2981C25.5946 26.5739 25.1479 26.5937 24.7997 26.4097C23.2493 25.1221 22.9734 24.5243 22.1194 23.2957C19.5572 25.9105 17.744 26.6922 14.4198 26.6922C10.4912 26.6922 7.42975 24.268 7.42975 19.4131C7.42975 15.6225 9.48615 13.0406 12.4094 11.7794C14.9454 10.6624 18.4864 10.4653 21.1931 10.1567V9.55222C21.1931 8.4419 21.2784 7.12802 20.6281 6.16892C20.0565 5.30828 18.9659 4.9535 18.0067 4.9535C16.2264 4.9535 14.6366 5.86662 14.249 7.75865C14.17 8.17921 13.8614 8.59312 13.4409 8.61278L8.90786 8.12672C8.52691 8.04114 8.10649 7.73248 8.2116 7.14768C9.25614 1.65564 14.216 0 18.657 0C20.9301 0 23.8995 0.604457 25.6931 2.32574C27.9662 4.44764 27.7493 7.2791 27.7493 10.3602V17.6393C27.7493 19.827 28.6559 20.7861 29.5099 21.9687C29.8121 22.3891 29.8779 22.8951 29.4968 23.2103C28.5442 24.0052 26.8492 25.4834 25.9164 26.3112L25.9033 26.2981" fill="black"/>
<path d="M30.9916 29.0652C16.4189 36.0006 7.3749 30.198 1.58555 26.6736C1.2273 26.4514 0.618415 26.7255 1.14671 27.3323C3.07543 29.6709 9.39626 35.3077 17.6468 35.3077C25.903 35.3077 30.8147 30.8027 31.4291 30.0168C32.0394 29.2376 31.6083 28.8078 30.9915 29.0652H30.9916ZM35.0844 26.805C34.693 26.2954 32.7047 26.2004 31.4535 26.3541C30.2002 26.5034 28.3191 27.2693 28.4827 27.7292C28.5666 27.9014 28.7379 27.8242 29.5988 27.7468C30.4621 27.6606 32.8805 27.3554 33.3844 28.0142C33.8907 28.6775 32.6131 31.8373 32.3797 32.3469C32.1543 32.8565 32.4659 32.9879 32.8893 32.6485C33.307 32.3092 34.0631 31.4306 34.5705 30.1872C35.0744 28.937 35.3818 27.193 35.0844 26.805Z" fill="#FF9900"/>
<path fill-rule="evenodd" clip-rule="evenodd" d="M21.1931 14.913C21.1931 16.7327 21.2391 18.2503 20.3193 19.8663C19.5769 21.1804 18.4009 21.9884 17.0871 21.9884C15.2935 21.9884 14.249 20.6219 14.249 18.6051C14.249 14.6238 17.8162 13.9013 21.1931 13.9013V14.913ZM25.9034 26.2981C25.5946 26.5739 25.1479 26.5937 24.7997 26.4097C23.2493 25.1221 22.9734 24.5243 22.1194 23.2957C19.5572 25.9105 17.744 26.6922 14.4198 26.6922C10.4912 26.6922 7.42975 24.268 7.42975 19.4131C7.42975 15.6225 9.48615 13.0406 12.4094 11.7794C14.9454 10.6624 18.4864 10.4653 21.1931 10.1567V9.55222C21.1931 8.4419 21.2784 7.12802 20.6281 6.16892C20.0565 5.30828 18.9659 4.9535 18.0067 4.9535C16.2264 4.9535 14.6366 5.86662 14.249 7.75865C14.17 8.17921 13.8614 8.59312 13.4409 8.61278L8.90786 8.12672C8.52691 8.04114 8.10649 7.73248 8.2116 7.14768C9.25614 1.65564 14.216 0 18.657 0C20.9301 0 23.8995 0.604457 25.6931 2.32574C27.9662 4.44764 27.7493 7.2791 27.7493 10.3602V17.6393C27.7493 19.827 28.6559 20.7861 29.5099 21.9687C29.8121 22.3891 29.8779 22.8951 29.4968 23.2103C28.5442 24.0052 26.8492 25.4834 25.9164 26.3112L25.9033 26.2981" fill="black"/>
</g>
<defs>
<clipPath id="clip0_8726_9636">
<rect width="36" height="36" fill="white"/>
</clipPath>
</defs>
</svg>