<?xml version="1.0" encoding="UTF-8"?>
<svg id="Layer_1" data-name="Layer 1" xmlns="http://www.w3.org/2000/svg" version="1.1" viewBox="0 0 222 190">
  <defs>
    <style>
      .cls-1 {
        fill: none;
        stroke: #000;
        stroke-linecap: round;
      }

      .cls-2 {
        fill: #fff;
      }

      .cls-2, .cls-3 {
        stroke-width: 0px;
      }

      .cls-3 {
        fill: #2c2e2a;
      }
    </style>
  </defs>
  <path class="cls-2" d="M145.9,12.4c-4.6,1.5-7.9,4.2-7.3,6,0,.1.1.2.2.4.4.5,0,1.2-.6,1.4-.6.1-1.2.3-1.9.5-5.4,1.8-9.2,4.9-8.5,7s5.6,2.4,11,.6,9.2-4.9,8.5-7c0-.3-.2-.5-.5-.7-.5-.4-.3-1.2.3-1.4.3,0,.6-.2.9-.3,4.6-1.5,7.9-4.2,7.3-6-.6-1.8-4.8-2-9.5-.5h.1Z"/>
  <path class="cls-1" d="M25.5,92.9c-2.3-7.1,0-19.9,3.5-25.3"/>
  <circle class="cls-3" cx="93" cy="139.6" r="2.5"/>
  <circle class="cls-3" cx="219.3" cy="39.8" r="1.9"/>
  <path class="cls-2" d="M31.9,129.4c1.6,7.8,4.9,18.3,12.3,28.4,22.4,30.6,62.3,31.2,67.9,31.1-3-.3-7.4-1.3-11.3-4.4-4.7-3.8-5.5-8.5-9.1-9-1.6-.2-4,.3-7.6,4.7-.3-6.5-4.5-10.8-8.2-10.6-3,.1-5.1,3.2-5.5,3.8.5-13.3-5.8-22.3-11.8-22.6-4-.3-7.6,3.4-9.2,5.5,1.7-4.8,0-9.3-3.2-10.7-2.4-1.1-5,.1-5.7.4.6-1.6,1.1-3.9,0-5.8-.9-1.7-2.4-2.2-4.1-3.6-1.5-1.3-3.4-3.4-4.6-7.1h0Z"/>
</svg>