<svg width="203" height="210" viewBox="0 0 203 210" fill="none" xmlns="http://www.w3.org/2000/svg">
<g clip-path="url(#clip0_8478_12319)">
<path d="M187.554 133.007C157.842 188.58 95.23 221.052 47.6997 205.537C0.175717 190.021 -14.266 132.387 15.4459 76.8142C45.1515 21.2417 107.77 -11.2304 155.294 4.28477C202.824 19.7999 217.266 77.4285 187.554 133.007Z" fill="#F5E211"/>
<path d="M149.2 120.482C126.856 162.269 82.2444 187.495 49.5512 176.825C16.8581 166.15 8.46673 123.623 30.8103 81.8351C53.1538 40.0413 97.7656 14.8159 130.459 25.4916C163.152 36.1673 171.543 78.6944 149.2 120.482Z" fill="#8ED462"/>
<mask id="mask0_8478_12319" style="mask-type:luminance" maskUnits="userSpaceOnUse" x="18" y="23" width="144" height="157">
<path d="M149.2 120.482C126.856 162.269 82.2444 187.495 49.5512 176.825C16.8581 166.15 8.46673 123.623 30.8103 81.8351C53.1538 40.0413 97.7656 14.8159 130.459 25.4916C163.152 36.1673 171.543 78.6944 149.2 120.482Z" fill="white"/>
</mask>
<g mask="url(#mask0_8478_12319)">
<path d="M165.43 125.779C143.087 167.566 98.4749 192.792 65.7817 182.122C33.0886 171.447 24.6972 128.919 47.0407 87.1319C69.378 45.3382 113.996 20.1128 146.689 30.7885C179.382 41.4641 187.774 83.9913 165.43 125.779Z" fill="#F5F1E4"/>
</g>
<path d="M43.8838 127.427L114.793 111.304L112.917 103.757L111.04 96.209L42.6913 122.625C39.3272 123.923 40.3941 128.223 43.8838 127.427Z" fill="#FF705D"/>
<path d="M132.875 84.4878L131.438 54.8555L103.452 74.8841L113.073 78.0248L90.5604 112.609L107.588 118.17L123.254 81.3472L132.875 84.4878Z" fill="#2BA0FF"/>
<path d="M105.988 107.632C105.335 108.854 103.747 109.5 102.448 109.08C101.149 108.66 100.628 107.318 101.28 106.096C101.933 104.873 103.521 104.228 104.82 104.648C106.119 105.068 106.64 106.409 105.988 107.632Z" fill="#F5E211"/>
<path d="M79.3636 192.755C88.6022 189.991 97.502 186.167 105.893 181.415C116.406 175.46 126.097 168.094 134.884 159.813C141.047 154.002 146.771 147.733 152.093 141.151C152.658 140.449 151.666 139.446 151.095 140.154C142.233 151.106 132.254 161.217 121.019 169.743C112.578 176.149 103.446 181.66 93.7551 185.954C88.96 188.079 84.0206 189.89 78.9933 191.389C78.1271 191.646 78.4974 193.012 79.3698 192.749L79.3636 192.755Z" fill="#2C2E2A"/>
<path d="M157.648 30.714C164.037 36.0174 168.675 43.1199 170.74 51.1752C170.966 52.0528 172.328 51.683 172.102 50.7991C169.98 42.5306 165.211 35.1648 158.646 29.7173C157.949 29.1405 156.945 30.131 157.648 30.714Z" fill="#2C2E2A"/>
</g>
<defs>
<clipPath id="clip0_8478_12319">
<rect width="203" height="209" fill="white" transform="translate(0 0.410156)"/>
</clipPath>
</defs>
</svg>
