<svg width="247" height="58" viewBox="0 0 247 58" fill="none" xmlns="http://www.w3.org/2000/svg">
<path d="M246.943 43.2199C247.068 45.413 245.891 47.1107 245.459 47.7408C238.199 58.2638 209.329 45.3601 172.734 47.1155C140.926 48.6401 141.416 59.4084 115.861 56.5516C95.7886 54.3056 89.1668 46.952 67.6207 48.5632C54.6412 49.5347 52.4995 52.5406 37.215 53.0407C20.346 53.5938 0.528555 50.6649 0.00994953 45.6486C-0.258957 43.0371 4.93669 42.2003 13.9258 35.4046C27.2655 25.3192 26.1947 19.3266 34.6653 14.8346C45.5992 9.03924 50.6316 16.7007 68.2161 14.8346C87.4765 12.7906 88.4129 0.810304 104.475 0.0359857C122.021 -0.805665 123.688 13.3677 143.793 16.2149C167.668 19.5959 175.38 1.35377 195.298 7.61566C207.582 11.4776 204.451 18.3695 224.763 28.3203C235.303 33.4856 246.578 36.7416 246.943 43.2199Z" fill="white"/>
</svg>
