<svg width="517" height="104" viewBox="0 0 517 104" fill="none" xmlns="http://www.w3.org/2000/svg">
<path d="M104.261 90.3294C141.601 87.9151 152.117 96.5625 187.555 99.3616C231.127 102.805 232.894 91.123 282.56 89.1511C342.531 86.7753 346.627 103.541 408.721 103.281C461.94 103.06 516.053 90.5026 516.115 79.7295C516.149 74.1409 501.618 73.6503 477.911 62.0644C425.719 36.56 422.939 3.1681 393.806 0.191061C362.344 -3.02164 358.767 35.2326 315.194 43.4519C275.089 51.0171 267.002 20.7033 224.405 27.8645C183.867 34.6795 179.44 64.1036 145.164 60.6264C119.536 58.0245 110.312 40.3931 86.3598 46.3135C71.8244 49.9062 71.5074 57.3175 50.7584 66.768C21.8366 79.9411 0.22807 75.6655 0.00238043 79.7246C-0.242516 84.1686 25.5676 91.4452 53.241 93.1814C75.4689 94.5762 85.3753 91.5462 104.266 90.3246L104.261 90.3294Z" fill="white"/>
</svg>
