<svg width="517" height="104" viewBox="0 0 517 104" fill="none" xmlns="http://www.w3.org/2000/svg">
<path d="M411.854 90.3294C374.515 87.9151 363.998 96.5625 328.56 99.3616C284.988 102.805 283.221 91.123 233.555 89.1511C173.584 86.7753 169.488 103.541 107.395 103.281C54.1751 103.06 0.0624829 90.5026 5.81914e-05 79.7295C-0.0335551 74.1409 14.497 73.6503 38.204 62.0644C90.3958 36.56 93.1761 3.1681 122.309 0.191061C153.771 -3.02164 157.349 35.2326 200.921 43.4519C241.027 51.0171 249.113 20.7033 291.711 27.8645C332.248 34.6795 336.676 64.1036 370.951 60.6264C396.579 58.0245 405.804 40.3931 429.755 46.3135C444.291 49.9062 444.608 57.3175 465.357 66.768C494.279 79.9411 515.887 75.6655 516.113 79.7246C516.358 84.1686 490.548 91.4452 462.874 93.1814C440.646 94.5762 430.74 91.5462 411.849 90.3246L411.854 90.3294Z" fill="white"/>
</svg>
