<svg width="108" height="33" viewBox="0 0 108 33" fill="none" xmlns="http://www.w3.org/2000/svg">
<path d="M106.372 24.4799C108.172 20.8729 107.034 15.7989 104.393 12.5333C101.104 8.46453 96.1387 8.07016 94.1027 7.90664C87.7882 7.40165 83.8843 10.2729 80.062 11.682C62.9864 17.968 48.2542 -5.27121 31.9182 1.12534C26.4056 3.28477 27.3804 6.03577 19.1739 9.45047C10.0647 13.2403 3.89909 11.8215 1.1428 16.4338C-0.571478 19.305 -0.177722 23.191 1.1428 25.7785C5.17639 33.6708 19.7069 33.0215 24.941 32.8051C38.9097 32.2328 39.2603 27.4522 51.5099 26.2402C65.1809 24.8839 67.1209 31.4103 85.637 31.0015C93.5937 30.8236 103.38 30.4869 106.376 24.4799H106.372Z" fill="white"/>
</svg>
