<?xml version="1.0" encoding="UTF-8"?>
<svg id="Layer_1" data-name="Layer 1" xmlns="http://www.w3.org/2000/svg" version="1.1" viewBox="0 0 610 1182">
  <defs>
    <style>
      .cls-1 {
        fill: #8ed462;
      }

      .cls-1, .cls-2, .cls-3 {
        stroke-width: 0px;
      }

      .cls-2 {
        fill: #f5e211;
      }

      .cls-3 {
        fill: #fff;
      }
    </style>
  </defs>
  <path class="cls-2" d="M361.7,975.9c-8.1,15.4,19,51.4,34.6,48.1,9.7-2.1,8.3-18.1,18.2-20.5,17.1-4.1,37,39.2,51.1,34.4,6.2-2.1,4.3-11,10.8-13.3,14-4.9,33.8,31.5,47.3,26.2,3.9-1.6,5.4-5.9,5.6-6.5,3.7-11-13.2-24.7-17.4-28.2-6.9-5.7-15.8-12.8-27.2-12.4-10.8.4-12.7,7.3-21.2,6.1-8.3-1.1-8.9-8-23.1-19.6-8-6.6-19.3-15.8-29.1-12.8-5.8,1.7-5.1,5.8-10.2,6.9-11.4,2.4-19.8-17.1-31.2-14.7-5.2,1.1-8,6.2-8.2,6.5Z"/>
  <path class="cls-3" d="M175.2,514.8C118,427.6,35,452.1.7,475.3c0-16,8.3-17.7,12.5-16.5,6-25.5,22.3-17.2,30-16,8.5-26.9,28.7-16.3,41.3-9.6h.2c23-29.9,42,1.9,51.5,21.6,16.4-28,32.8,28.3,39,60Z"/>
  <path class="cls-1" d="M588.2,55c-6.5-14.4-16.2-24.1-21.8-21.6-.4.2-.8.4-1.1.7-1.5,1.3-4,.5-4.7-1.4-.7-1.9-1.5-3.9-2.4-5.8-7.5-16.8-18.9-28-25.3-25.1-6.5,2.9-5.7,18.9,1.9,35.6,7.5,16.8,18.9,28,25.3,25.1.8-.4,1.5-1,2.1-1.7,1.3-1.7,3.8-1.4,4.6.5.4.9.7,1.8,1.2,2.7,6.5,14.4,16.2,24.1,21.8,21.6,5.6-2.5,4.9-16.2-1.6-30.6Z"/>
</svg>