<?xml version="1.0" encoding="UTF-8"?>
<svg id="Layer_1" data-name="Layer 1" xmlns="http://www.w3.org/2000/svg" version="1.1" viewBox="0 0 432 653">
  <defs>
    <style>
      .cls-1 {
        fill: #f5f1e4;
      }

      .cls-1, .cls-2, .cls-3 {
        stroke-width: 0px;
      }

      .cls-2 {
        fill: #f5e211;
      }

      .cls-3 {
        fill: #ebc1ff;
      }
    </style>
  </defs>
  <path class="cls-2" d="M264.6,621c-8.6-13.2-19.7-21.3-24.8-18-.4.2-.7.5-1,.9-1.3,1.6-3.9,1.1-4.8-.7-1-1.8-2.1-3.6-3.2-5.4-10-15.4-22.9-24.8-28.9-20.9-6,3.9-2.7,19.5,7.3,34.9,10,15.4,22.9,24.8,28.9,20.9.8-.5,1.4-1.2,1.9-2,1-1.8,3.5-2,4.6-.2.5.8,1,1.7,1.6,2.5,8.6,13.2,19.7,21.3,24.8,18,5.1-3.3,2.3-16.8-6.3-30Z"/>
  <ellipse class="cls-1" cx="199.6" cy="221.8" rx="7.5" ry="18.8" transform="translate(-84.4 130.4) rotate(-30.2)"/>
  <path class="cls-2" d="M312.6,3.3c-13,2.8-20.8,36.4-11.1,43.9,6,4.7,14.7-4,21,.6,10.8,8-4.8,41,5,46.9,4.3,2.6,8.6-2.9,13.1-.2,9.8,5.7-1.8,35.3,8,40.6,2.8,1.5,6.1.3,6.6,0,8.2-3.3,8-19.9,7.9-24.1,0-6.8-.2-15.5-6.1-22-5.6-6.1-10.5-3.9-14-9.4-3.4-5.4.3-9.2.1-23.2,0-7.9-.2-19-6.8-23.4-3.9-2.5-5.9-.1-9.1-2.6-7-5.5.3-20-6.7-25.5-3.2-2.5-7.6-1.7-7.9-1.6Z"/>
  <ellipse class="cls-3" cx="404.9" cy="234.2" rx="11.4" ry="29" transform="translate(-57.9 301.9) rotate(-38.4)"/>
</svg>