<?xml version="1.0" encoding="UTF-8"?>
<svg id="Layer_1" data-name="Layer 1" xmlns="http://www.w3.org/2000/svg" xmlns:xlink="http://www.w3.org/1999/xlink" version="1.1" viewBox="0 0 1512 317">
  <defs>
    <style>
      .cls-1 {
        fill: #bf5622;
      }

      .cls-1, .cls-2, .cls-3, .cls-4, .cls-5, .cls-6, .cls-7, .cls-8, .cls-9 {
        stroke-width: 0px;
      }

      .cls-2 {
        fill: #f5f1e4;
      }

      .cls-10 {
        mask: url(#mask);
      }

      .cls-3 {
        fill: #2ba0ff;
      }

      .cls-4 {
        fill: #8ed462;
      }

      .cls-5 {
        fill: #f5e211;
      }

      .cls-6 {
        fill: #ebc1ff;
      }

      .cls-7 {
        fill: #fff;
      }

      .cls-11 {
        mask: url(#mask-1);
      }

      .cls-8 {
        fill: #ff705c;
      }

      .cls-9, .cls-12 {
        fill: #2c2e2a;
      }

      .cls-12 {
        stroke: #000;
        stroke-width: 1px;
      }
    </style>
    <mask id="mask" x="-64.4" y="34.9" width="147.6" height="101.7" maskUnits="userSpaceOnUse">
      <g id="mask0_8577_28150" data-name="mask0 8577 28150">
        <path class="cls-7" d="M16.9,123.7c37.8-9.5,64.2-34,59-54.6-5.2-20.6-40-29.6-77.8-20.1-37.8,9.5-64.2,34-59,54.6,5.2,20.6,40,29.6,77.8,20.1Z"/>
      </g>
    </mask>
    <mask id="mask-1" x="1326.7" y="57.3" width="115.3" height="79.5" maskUnits="userSpaceOnUse">
      <g id="mask1_8577_28150" data-name="mask1 8577 28150">
        <path class="cls-7" d="M1439.4,110.7c4.1-16.3-16.4-35.6-45.9-43-29.4-7.4-56.6-.2-60.7,16.1-4.1,16.3,16.4,35.6,45.9,43,29.4,7.4,56.6.2,60.8-16.1Z"/>
      </g>
    </mask>
  </defs>
  <path class="cls-4" d="M983.8,219.6c-1.5-18-2-40.2.8-65.4,2.8-25.8,8.2-47.9,13.7-65.4,4.7,1.5,9.4,2.9,14.1,4.4-5.5,17.1-11.7,43.1-10.3,74.9.9,20.6,4.7,38.1,8.7,51.6h-26.9Z"/>
  <path class="cls-4" d="M984.4,156c-.9-1.9-18.3-39.1-45.1-39.4-3.4,0-14.5-.2-21.2,7.7-3.7,4.3-6.6,11.6-4.9,18.4,4.1,16.3,31,13.7,53.1,35.2,9.2,8.9,14,18.6,16.6,24.6,1.9-5.2,4.3-13.2,4.6-23.1.3-10-1.4-18.1-3-23.4h0Z"/>
  <path class="cls-8" d="M964.4,56c-17.9,5.7-29.7,15.2-29.5,24.8,0,.5,0,3.2,1.6,5.7,8.4,14.2,50.8,3,53.5,2.3.4,7,4.6,13,10.5,15,7.7,2.6,17.4-2.2,20.6-11.7,13.5,17.3,30.6,23.5,39.8,18,5.7-3.4,7.1-10.6,7.3-11.9,1.9-11.1-5.9-23.7-20.2-30.4,15.8-10.3,23.9-24.8,20.7-36.2-.4-1.3-2.5-8.3-8.4-10.6-8.3-3.3-21.5,3.9-30.6,19.8,1.9-19.7-4-35.7-14.2-39.6-.9-.3-5.7-2.1-10.7,0-8.8,3.6-13.7,17.1-10.8,33.7-13.2-13.5-30-13.3-35.3-7-4.5,5.4-2.7,17.8,5.9,28.2h0Z"/>
  <path class="cls-6" d="M1028.9,60.4c.5-6.6-7.7-12.7-18.4-13.5-10.7-.8-19.8,3.9-20.3,10.5-.5,6.6,7.7,12.7,18.4,13.5,10.7.8,19.8-3.9,20.3-10.5Z"/>
  <path class="cls-4" d="M-3.1,112.5C-.8,132,.5,154.8-.4,180.2c-.8,21.8-3.1,41.5-6.1,58.7h39.3c-4.8-16.3-9.2-35.8-11.8-57.9-3.4-29.1-2.7-54.8-.7-75.4-7.8,2.3-15.6,4.6-23.4,6.9h0Z"/>
  <path class="cls-1" d="M16.5,124c37.8-9.5,64.1-34.2,58.8-55.2-5.3-20.9-40.2-30.2-77.9-20.6-37.8,9.5-64.1,34.2-58.8,55.2,5.3,20.9,40.2,30.2,77.9,20.6Z"/>
  <g class="cls-10">
    <g>
      <path class="cls-9" d="M-57.3,77.6c9.1.3,18.2.6,27.3.9,9.1.3,18.2.6,27.3.9,9.1.3,18.3.6,27.4.9,9.1.3,18.2.6,27.3.9,9.1.3,18.2.6,27.3.9,1.1,0,2.2,0,3.4.1.7,0,.7-1.1,0-1.1-9.1-.3-18.2-.6-27.3-.9-9.1-.3-18.2-.6-27.3-.9-9.1-.3-18.3-.6-27.4-.9-9.1-.3-18.2-.6-27.3-.9-9.1-.3-18.2-.6-27.3-.9-1.1,0-2.2,0-3.4-.1-.7,0-.7,1.1,0,1.1Z"/>
      <path class="cls-9" d="M26.2,35.3c-5.4,13.1-10.7,26.2-16.1,39.3-5.4,13.1-10.7,26.2-16.1,39.3-3,7.4-6,14.7-9,22.1-.3.6.8.9,1,.3,5.4-13.1,10.7-26.2,16.1-39.3,5.4-13.1,10.7-26.2,16.1-39.3,3-7.4,6-14.7,9-22.1.3-.6-.8-.9-1-.3Z"/>
      <path class="cls-9" d="M-63.6,118.6c8.9-4.8,17.9-9.5,26.8-14.3,8.9-4.7,17.8-9.5,26.7-14.3,8.9-4.7,17.8-9.5,26.7-14.3,8.9-4.7,17.9-9.5,26.8-14.3,8.9-4.8,17.8-9.5,26.7-14.3,1.1-.6,2.2-1.2,3.3-1.8.6-.3,0-1.3-.5-.9-8.9,4.8-17.9,9.5-26.8,14.3-8.9,4.7-17.8,9.5-26.7,14.3-8.9,4.7-17.8,9.5-26.7,14.3-8.9,4.8-17.9,9.5-26.8,14.3-8.9,4.8-17.8,9.5-26.7,14.3-1.1.6-2.2,1.2-3.3,1.8-.6.3,0,1.3.5.9Z"/>
      <path class="cls-9" d="M-16.8,47c7.3,9.5,14.5,19,21.8,28.4,7.3,9.5,14.5,19,21.8,28.4,4.1,5.3,8.2,10.7,12.3,16,.4.5,1.4,0,.9-.5-7.3-9.5-14.5-19-21.8-28.4-7.3-9.5-14.5-19-21.8-28.4-4.1-5.3-8.2-10.7-12.3-16-.4-.5-1.4,0-.9.6Z"/>
    </g>
  </g>
  <path class="cls-5" d="M10.1,96.5c14.4-3.6,24.4-13,22.4-21-2-8-15.3-11.5-29.6-7.9-14.4,3.6-24.4,13-22.4,21,2,8,15.3,11.5,29.6,7.9Z"/>
  <path class="cls-9" d="M977.9,169.7c-3.4-5.4-7.4-10.6-11.8-15.3-5.9-6.2-12.5-11.6-19.9-15.9-4.4-2.6-9-4.8-13.7-6.6-.7-.3-.9.8-.3,1,8.4,3.2,16.2,7.7,23.3,13.3,5.9,4.7,11.2,10.1,15.8,16,2,2.6,3.9,5.3,5.6,8,.4.6,1.3,0,.9-.6Z"/>
  <path class="cls-9" d="M1004.1,193c.6,5,2.8,9.6,6.1,13.3.5.5,1.2-.3.8-.8-3.2-3.5-5.2-7.9-5.8-12.5,0-.7-1.2-.7-1.1,0Z"/>
  <path class="cls-9" d="M979.9,197.4c1.1,4,1.5,8.2,1.1,12.3,0,.7,1,.7,1.1,0,.4-4.2,0-8.5-1.1-12.6-.2-.7-1.2-.4-1,.3Z"/>
  <path class="cls-9" d="M346.5,170.5c1.2,9.7,1.2,19.6-.2,29.3-.3,2.4-.8,4.8-1.2,7.2-.1.7.9,1,1,.3,2-9.5,2.7-19.3,2.1-29.1-.1-2.6-.4-5.2-.7-7.7,0-.7-1.2-.7-1.1,0h0Z"/>
  <path class="cls-9" d="M375.2,178.4c.2,4.7.2,9.4,0,14,0,.7,1.1.7,1.1,0,.2-4.7.2-9.4,0-14,0-.7-1.1-.7-1.1,0Z"/>
  <path class="cls-4" d="M1394.1,117.9c-1.8,15.2-2.8,33-2.1,52.8.6,17,2.5,32.4,4.8,45.7h-30.6c3.7-12.7,7.2-27.9,9.2-45.1,2.7-22.7,2.1-42.7.6-58.8,6.1,1.8,12.1,3.6,18.2,5.4h0Z"/>
  <path class="cls-5" d="M1439.4,110.6c4.1-16.3-16.4-35.6-45.9-43-29.4-7.4-56.6-.2-60.7,16.1-4.1,16.3,16.4,35.6,45.9,43,29.4,7.4,56.6.2,60.7-16.1Z"/>
  <path class="cls-4" d="M1378.5,186.9c-1.1-3.5-12.7-39.7-29.1-44.9-2.2-.7-7-2.2-11.4,0-5.3,2.8-6.6,9.4-6.9,10.7-2.2,11,6.2,21,11.8,27.6,4.9,5.8,14.3,15.3,30.4,22.2,1.7-5.3,3.5-10.5,5.2-15.8h0Z"/>
  <path class="cls-12" d="M1345.9,155.1c2,2.3,3.9,4.7,5.8,7.1h0c6.5,8.1,12.7,16.5,18.6,25.1h0l.5.8h0s0,0,0,0c0,0,0,0,0,0s0,0,0,0h0s-1.2-1.8-1.2-1.8c-.8-1.2-1.7-2.4-2.5-3.6l-1.3-1.8c-6.3-8.8-12.9-17.3-19.8-25.6,0,0,0,0,0,0h0s0,0,0,0Z"/>
  <g class="cls-11">
    <g>
      <path class="cls-9" d="M1436.3,89.7c-14.2.5-28.4,1-42.5,1.4-14.2.5-28.4,1-42.6,1.4-8,.3-16,.5-24,.8-.7,0-.7,1.1,0,1.1,14.2-.5,28.4-1,42.6-1.4,14.2-.5,28.4-1,42.6-1.4,8-.3,16-.5,24-.8.7,0,.7-1.1,0-1.1Z"/>
      <path class="cls-9" d="M1370.3,58c4.2,10.2,8.4,20.4,12.5,30.7,4.2,10.2,8.3,20.4,12.5,30.5,2.4,5.8,4.7,11.5,7.1,17.3.3.6,1.3.4,1-.3-4.2-10.2-8.4-20.4-12.5-30.7-4.2-10.2-8.3-20.4-12.5-30.5-2.4-5.8-4.7-11.5-7.1-17.3-.3-.6-1.3-.4-1.1.3Z"/>
      <path class="cls-9" d="M1441.7,121.8c-13.9-7.4-27.9-14.9-41.8-22.3-13.9-7.4-27.7-14.8-41.6-22.2-7.8-4.2-15.6-8.3-23.3-12.5-.6-.3-1.2.6-.6.9,13.9,7.4,27.9,14.9,41.8,22.3,13.9,7.4,27.7,14.8,41.6,22.2,7.8,4.2,15.6,8.3,23.3,12.5.6.3,1.2-.6.5-.9Z"/>
      <path class="cls-9" d="M1403.9,66.3c-5.7,7.4-11.3,14.7-17,22.1-5.7,7.4-11.4,14.8-17,22.2-3.2,4.2-6.4,8.3-9.6,12.5-.4.6.5,1.1.9.5,5.7-7.4,11.3-14.7,17-22.1,5.7-7.4,11.4-14.8,17.1-22.2,3.2-4.2,6.4-8.3,9.6-12.5.4-.6-.5-1.1-.9-.6Z"/>
    </g>
  </g>
  <path class="cls-3" d="M1406.7,99.2c1.6-6.2-6.2-13.5-17.4-16.4-11.2-2.8-21.5,0-23.1,6.1-1.6,6.2,6.2,13.5,17.4,16.4,11.2,2.8,21.5,0,23.1-6.1Z"/>
  <path class="cls-9" d="M1393.8,200.6c.4,5.3,1.6,10.6,3.4,15.6.2.7,1.3.4,1-.3-1.8-4.9-3-10.1-3.4-15.3,0-.7-1.1-.7-1.1,0Z"/>
  <path class="cls-2" d="M1527.7,316.6l-8.7-105c-3.4-2.9-50.6-41-100-23.1-12.5,4.5-22,11.5-29.1,18.1-3,2.8-7.3,3.5-11,1.8-6.7-3.1-16.7-6.5-29.1-6.4-19.1.1-33.2,8.4-40.3,13.7-2.6,1.9-5.9,2.4-8.9,1.5-7.4-2.3-15.7-4.3-24.8-5.5-35.2-4.7-64.9,4-83.3,11.6-3.7,1.5-8,.7-10.8-2.2-7.9-7.9-25.7-21.9-49.2-19.1-11.8,1.4-20.7,6.6-26.5,10.9-3.4,2.5-8,2.7-11.5.4-14.2-9.4-46.4-26.8-86.9-21-19.5,2.8-34.9,10.1-45.1,16.4-2.9,1.7-6.4,1.9-9.4.5-10.3-4.9-31.3-12.6-56.3-7.1-11.4,2.5-20.5,7.1-27.1,11.3-3.8,2.5-8.9,2-12.2-1.1-26.8-25.3-63.1-35.7-95.6-26.4-23.5,6.7-38.7,21.8-46.6,31.6-2.6,3.2-6.9,4.5-10.8,3.2-6.9-2.3-17.9-4.4-30.7-1.3-8.4,2.1-15.1,5.8-20,9.5-4.7,3.6-11.5,2.2-14.5-2.9-8.3-13.8-21.7-22.8-36.4-23.8-10.6-.8-19.4,2.9-24.9,6-3.2,1.8-7.1,1.7-10.2-.2-13.3-8.4-36.9-20.3-68.2-22-18.6-1-34.3,2-45.6,5.2-2.7.8-5.6.4-7.9-1.1-14.7-9-60.2-33.2-114.9-18.9-29.2,7.7-49.6,23.3-61.4,34.5-3.4,3.3-8.7,3.6-12.5.9-19.3-13.5-42.8-16.7-61.8-7.8-10.6,5-17.6,12.7-21.9,18.9-2.5,3.7-7.2,5.2-11.4,3.8-6.2-2.1-15.5-3.8-26-.7-7.4,2.1-13,5.9-17,9.5-3.9,3.5-9.7,3.4-13.5-.1-8.3-7.8-23.6-18.7-44.2-18.3-10.8.2-19.7,3.4-25.9,6.5-3.8,1.9-8.4,1.2-11.4-1.7-6.7-6.5-19.8-16.1-37.7-14.4-11.4,1.1-19.9,6.4-25.5,11.2-4.3,3.8-10.9,3.1-14.4-1.4-6.6-8.6-18.2-20.1-36.4-26-27.2-8.9-49.9.8-54.9,3.1v95.1L0,286.8v30.2h1512v-.7l15.7.3Z"/>
</svg>