<svg xmlns="http://www.w3.org/2000/svg" version="1.1" viewBox="0 0 1512 215">
  <path fill="#7AC04D" d="M1501.6,63.9c-15.4.8-27.4,6-35.2,10.6-4.8,2.8-10.9,2.6-15.5-.6-13.3-9.3-42.5-25.1-78.3-15.7-30,7.9-47.1,29-55.3,42.3-3.6,5.8-10.6,8.2-17,6-5.9-2.1-13.6-3.8-22.4-3.4-11.9.5-21.5,4.4-28.2,8.3-6,3.5-13.7,2-18.2-3.4-17.5-21.2-39.3-36.7-62.3-44.7-.2-3.5-.8-7.6-2.3-12-.1-.4-.3-.8-.4-1.1,0,0,0,0,0,0,3.7,1.6,9.4,2.2,13.5-1.1.6-.5,2.9-2.4,3.4-5.5.7-4-1.8-8.5-6.4-11.1h0c3.4-2.1,5-5.7,4.3-8.5-1.1-3.8-6.7-6.6-12.1-4,1.7-5.4.4-10.5-2.9-12.7-2.4-1.6-5.2-1.2-5.9-1-4.4.7-8.1,4.8-9.5,10.2-2.8-4.6-7.8-6.6-11.5-5.1-3.4,1.3-4.5,5.1-4.6,5.4-1.1,3.9.8,8.4,4.8,11.1-6.7,1.1-11.3,5-11.6,9.2,0,.4-.2,2.6,1.3,4.4,2.6,3,8.7,3.2,14.9-.5-.3,3.8,1.8,7.2,4.8,8.3,1.7.6,3.6.5,5.4-.3.1,1.6.1,3.3-.1,5.1-.2,1.8-.6,3.4-1.2,4.9-12.5-2.4-25.1-2.7-37.5-.5-20,3.5-35.6,12.7-46.4,21.2-4.9,3.8-11.8,4.1-16.9.5-5.9-4-14.9-8.2-26.2-7.7-9.2.4-16.5,3.7-21.9,7.4-6.7,4.5-15.7,2.8-20.2-3.8-19.7-29.1-52-47-86.4-46.9-22.2,0-40.3,7.6-54,16.4-.6-1.6-1.3-3.2-2.2-4.9-.6-1.1-1.2-2.1-1.8-3,6.9-6.2,9.6-16.2,6-25.3l-2.6-6.6c-1.5-3.9-5.9-5.8-9.8-4.2h0c-3.9,1.5-5.8,5.9-4.2,9.8-1.5-3.9-5.9-5.8-9.8-4.2-3.9,1.5-5.8,5.9-4.2,9.8-1.5-3.9-5.9-5.8-9.8-4.2-3.9,1.5-5.8,5.9-4.2,9.8l2.6,6.6c3.7,9.3,12.7,14.8,22.2,14.3.8,2.2,1.4,4.8,1.6,7.7.2,3.1-.2,5.8-.8,8.1-1.7,1.6-3.2,3.1-4.6,4.5-4.3,4.5-11,5.8-16.6,3-6.5-3.2-15.9-6.1-26.9-4.2-11.2,1.9-21.2,8.2-28.1,17.3-4.6,6-13,7.5-19.3,3.4-4-2.6-8.6-4.3-13.5-4.7-3.8-.4-7.7,0-11.2,1.1-7.7,2.3-15.7-2.3-17.9-10-4.1-14.4-14.5-26-27.9-30.3-11.9-3.9-25.2-1.7-36.3,5.2-5.4,3.4-12.4,2.9-17.2-1.3-10.9-9.6-31.3-23.5-59.7-24.8-31.6-1.4-55,13.6-68.2,25.1-6,5.2-15.1,4.5-20.3-1.5-6.4-7.3-14.8-12.1-23.9-13-4.7-.5-8.9.2-12.4,1.2-4.3,1.2-8.9.4-12.5-2.3-8.5-6.3-21.7-13.7-38.4-14.7-30.1-1.8-60.5,17.7-77.9,50.1-3.4,6.4-10.9,9.2-17.7,6.7-8.8-3.2-21.4-6.2-36.2-4.8-.5-1.6-1-3.3-1.2-5.1-.1-1.1-.2-2.2-.2-3.3,1.2.9,2.6,1.5,4.2,1.6.8,0,3.6.2,5.2-1.8,1.3-1.6,1.4-4.1.3-6.3,5.9,1.8,11.3.5,13.3-2.8,1.1-1.8.8-3.7.8-4.2-.5-3.7-4.3-6.9-9.5-7.8,5-2.3,7.4-7.6,5.9-11.7-1-2.9-3.9-5.2-7.2-5.4-4.1-.3-8.2,2.9-9.2,7.7-1.7-7.8-6-13.2-10.5-13.4-.4,0-2.5,0-4.1,1.4-2.9,2.5-3.1,8.3,0,14.4-6.8-3.5-13.2-1.4-14.5,1.8-1.1,2.7,1.2,7.2,5.8,10.1h0c-6.2,4.5-9.5,9.6-8.3,13.3,0,.2.4,1.2,1.3,2,3.2,2.8,10.6-.2,15.7-2.8-.7,1.5-1.3,3.1-1.9,4.8-1.3,4-1.9,7.7-2.2,11-7.4,2.2-13.7,5.3-18.7,8.3-6.7,4-15.5,2-19.6-4.7-5.5-8.9-11.6-13.2-15.5-15.4-25.8-14.2-70.4,1.9-108.8,45.1-5.3,6-14.5,6.4-20.4.9-4.3-4-10.2-7.8-17.7-9.5-1.6-.4-3.2-.6-4.7-.7-6.3-.5-11.5-5-12.8-11.2-1-5-2.7-9.7-4.8-14.2v147.9h1512V64c-3.3-.3-6.8-.4-10.4-.2Z"/>
</svg>
