<svg width="113" height="97" viewBox="0 0 113 97" fill="none" xmlns="http://www.w3.org/2000/svg">
<g clip-path="url(#clip0_8478_12109)">
<path d="M111.41 30.4258C110.879 26.7981 110.184 23.1901 109.338 19.6216C108.578 16.3758 107.955 12.8139 106.119 9.9763C103.194 5.4466 98.3678 3.92573 93.4366 2.63529C87.3382 1.042 81.0235 0.153178 74.7219 0.0215005C59.3251 -0.307692 43.9743 3.99157 30.9186 12.1621C25.83 15.3421 21.6399 19.1674 21.3907 25.6064C21.2661 28.793 22.3874 31.4528 23.9022 34.172C25.4891 37.0294 26.7743 39.9921 27.7645 43.0799C22.6891 42.1911 17.194 42.9614 12.5514 45.246C11.4825 45.7727 5.48907 49.1568 2.43989 56.4913C-0.943721 64.6223 0.767754 74.1821 6.04644 80.845C13.0104 89.641 23.5481 90.0689 26.1907 90.1809C38.0071 90.6615 45.9874 83.7287 47.6727 82.1946C49.935 85.9079 53.0497 89.1011 56.9645 91.5174C65.2989 96.6528 76.053 98.2132 85.5612 96.0866C105.581 91.6161 111.994 68.3093 112.637 50.3683C112.879 43.6988 112.387 37.0294 111.417 30.4323L111.41 30.4258ZM58.6301 39.8407C57.0169 40.5912 55.5415 41.5657 55.5415 41.5657C54.571 42.2109 53.653 42.9219 52.7874 43.6857C52.5973 43.0799 52.2956 42.178 51.8956 41.085C51.0825 38.8729 50.4071 37.4244 49.8563 36.1669C49.2268 34.7316 48.3743 32.6511 47.4628 29.9781C48.6825 29.3065 50.394 28.4374 52.512 27.5947C55.3251 26.4689 60.6825 24.3884 67.7448 24.4081C70.453 24.4147 74.4727 24.7373 79.1678 26.2977C79.7251 27.9832 80.2694 29.7542 80.7809 31.5977C81.5678 34.4419 82.2038 37.1676 82.7219 39.7485C77.3514 37.9314 72.794 37.6417 69.8891 37.6812C65.0628 37.7404 61.0235 38.728 58.6301 39.8407Z" fill="#8ED462"/>
<path d="M48.3808 81.5487C43.4497 72.5486 41.9087 60.6252 47.1546 51.4275C48.7349 48.6491 50.8595 46.246 53.3119 44.2116C54.0464 43.6059 52.9972 42.5591 52.2693 43.1648C47.489 47.1349 44.1185 52.527 42.9382 58.6698C41.9677 63.7394 42.4267 68.9538 43.7644 73.9114C44.5579 76.8281 45.6529 79.646 47.1087 82.2927C47.5677 83.1288 48.8398 82.3848 48.3808 81.5421V81.5487Z" fill="#2C2E2A"/>
<path d="M27.7578 43.8239C30.3283 44.1004 32.8726 44.7522 35.2529 45.7661C35.6201 45.9241 36.0464 45.878 36.2628 45.5028C36.4464 45.1933 36.3677 44.6469 36.0005 44.4888C33.3644 43.363 30.6103 42.6454 27.7644 42.3425C27.3644 42.303 27.03 42.7112 27.03 43.0799C27.03 43.5144 27.371 43.7778 27.7644 43.8173L27.7578 43.8239Z" fill="#2C2E2A"/>
<path d="M82.8529 40.5126C84.4922 41.1644 86.1316 42.0071 87.6529 42.9749C87.9873 43.1856 88.466 43.0474 88.6627 42.7116C88.8726 42.356 88.7349 41.9149 88.4004 41.6977C86.7676 40.664 85.0431 39.8015 83.2529 39.0839C82.8791 38.939 82.4398 39.2419 82.348 39.604C82.2299 40.0254 82.4922 40.3677 82.866 40.5126H82.8529Z" fill="#2C2E2A"/>
<path d="M47.0955 29.3466C45.5349 30.1169 44.1381 31.2427 43.0693 32.6122C42.8332 32.915 42.7545 33.3693 43.0693 33.659C43.3381 33.9026 43.8562 33.9816 44.1119 33.659C44.6234 33.0072 45.207 32.4081 45.8496 31.8814C45.8824 31.855 45.9152 31.8287 45.948 31.8024C45.9939 31.7694 46.0595 31.7168 45.9742 31.776C46.0595 31.7102 46.1447 31.6443 46.2365 31.5851C46.4004 31.4666 46.5709 31.3481 46.7414 31.2427C47.0955 31.0189 47.4627 30.8148 47.8365 30.6238C48.1841 30.4527 48.3086 29.9325 48.0988 29.6099C47.8693 29.2544 47.4627 29.1622 47.089 29.3466H47.0955Z" fill="#2C2E2A"/>
<path d="M79.8103 25.9281C78.6562 23.8213 77.1545 21.9119 75.3709 20.3121C75.0758 20.0421 74.6168 20.0158 74.3283 20.3121C74.0594 20.582 74.0332 21.0889 74.3283 21.3589C76.0201 22.8863 77.4365 24.6706 78.5381 26.6786C78.7283 27.0276 79.207 27.1395 79.548 26.942C79.8889 26.7445 80.007 26.2836 79.8103 25.9281Z" fill="#2C2E2A"/>
<path d="M15.4435 55.0415C17.6815 53.2695 18.6231 50.722 17.5467 49.3515C16.4702 47.981 13.7834 48.3065 11.5454 50.0786C9.30745 51.8506 8.36585 54.3981 9.44228 55.7686C10.5187 57.139 13.2056 56.8135 15.4435 55.0415Z" fill="white"/>
<path d="M66.4346 54.4493C71.0471 52.8773 74.0407 49.3978 73.1211 46.6777C72.2014 43.9575 67.7168 43.0268 63.1043 44.5989C58.4918 46.1709 55.4982 49.6504 56.4178 52.3705C57.3375 55.0907 61.8222 56.0214 66.4346 54.4493Z" fill="white"/>
<path d="M53.8103 61.9946C55.3784 61.9946 56.6496 60.7182 56.6496 59.1438C56.6496 57.5693 55.3784 56.293 53.8103 56.293C52.2422 56.293 50.9709 57.5693 50.9709 59.1438C50.9709 60.7182 52.2422 61.9946 53.8103 61.9946Z" fill="white"/>
</g>
<defs>
<clipPath id="clip0_8478_12109">
<rect width="112" height="97" fill="white" transform="translate(0.688965 0.00195312)"/>
</clipPath>
</defs>
</svg>
