<svg width="173" height="40" viewBox="0 0 173 40" fill="none" xmlns="http://www.w3.org/2000/svg">
<path d="M0.00633668 30.2767C-0.0800975 31.8109 0.741102 33.0036 1.04362 33.4413C6.12883 40.8142 26.3544 31.7724 51.9917 33.0037C74.2725 34.0713 73.9315 41.6173 91.833 39.6118C105.893 38.0391 110.536 32.8882 125.624 34.0184C134.714 34.6966 136.217 36.8079 146.925 37.1542C158.743 37.5438 172.625 35.4901 172.99 31.9744C173.177 30.1468 169.542 29.5601 163.242 24.7988C153.898 17.7337 154.647 13.5351 148.716 10.3897C141.057 6.33053 137.533 11.6979 125.216 10.3897C111.722 8.96129 111.065 0.564024 99.8186 0.0253671C87.5258 -0.566193 86.3589 9.36529 72.2749 11.3612C55.5499 13.7323 50.1478 0.948772 36.1935 5.33978C27.5885 8.0475 29.783 12.8714 15.5501 19.8451C8.16482 23.4617 0.270446 25.7414 0.0111433 30.2815L0.00633668 30.2767Z" fill="white"/>
</svg>
