<svg width="430" height="542" viewBox="0 0 430 542" fill="none" xmlns="http://www.w3.org/2000/svg">
<path d="M165 99.9102C149 70.9102 116.8 9.80305 88 45.4031C73.6667 22.403 36.3 -16.697 1.5 10.903" stroke="black" stroke-width="1.5" stroke-linecap="round"/>
<path d="M428.521 541.486C428.839 541.751 429.312 541.707 429.577 541.389C429.842 541.07 429.798 540.598 429.479 540.333L429 540.91L428.521 541.486ZM368.5 456.909L367.846 456.543L367.137 457.808L368.579 457.655L368.5 456.909ZM348 342.41L347.691 341.727C347.369 341.873 347.192 342.223 347.267 342.568C347.341 342.914 347.647 343.16 348 343.16V342.41ZM404.357 250.751C403.993 250.553 403.538 250.689 403.341 251.053C403.143 251.417 403.279 251.872 403.643 252.07L404 251.41L404.357 250.751ZM429 540.91L429.479 540.333C410.446 524.512 405.993 502.657 400.971 485.017C398.476 476.251 395.814 468.445 391.026 463.134C386.174 457.753 379.228 455.019 368.421 456.164L368.5 456.909L368.579 457.655C379.022 456.55 385.451 459.191 389.912 464.138C394.436 469.156 397.024 476.631 399.529 485.428C404.507 502.913 409.054 525.307 428.521 541.486L429 540.91ZM368.5 456.909L369.154 457.276C376.53 444.117 387.452 415.378 388.499 389.878C389.023 377.129 387.084 365.076 380.881 356.192C374.644 347.26 364.191 341.66 348 341.66V342.41V343.16C363.809 343.16 373.751 348.602 379.651 357.05C385.583 365.546 387.519 377.211 387.001 389.816C385.965 415.025 375.137 443.535 367.846 456.543L368.5 456.909ZM348 342.41L348.309 343.093C372.123 332.315 396.935 315.294 410.446 297.999C417.197 289.358 421.208 280.542 420.726 272.337C420.24 264.067 415.207 256.628 404.357 250.751L404 251.41L403.643 252.07C414.183 257.779 418.782 264.82 419.229 272.425C419.679 280.096 415.923 288.551 409.264 297.076C395.955 314.112 371.377 331.006 347.691 341.727L348 342.41Z" fill="black"/>
</svg>
