<svg width="372" height="75" viewBox="0 0 372 75" fill="none" xmlns="http://www.w3.org/2000/svg">
<path d="M75.1404 65.2743C102.05 63.5332 109.628 69.7663 135.164 71.7814C166.564 74.2631 167.836 65.8418 203.625 64.423C246.842 62.7108 249.795 74.7921 294.539 74.6045C332.892 74.4458 371.888 65.3945 371.931 57.6321C371.955 53.6066 361.482 53.2507 344.402 44.9015C306.794 26.5198 304.786 2.45826 283.792 0.313251C261.118 -2.00009 258.539 25.5676 227.14 31.488C198.237 36.9419 192.412 15.0974 161.714 20.258C132.499 25.1684 129.311 46.3732 104.61 43.8675C86.1415 41.9918 79.4957 29.2853 62.2329 33.5512C51.7599 36.1387 51.5295 41.482 36.5763 48.2922C15.7361 57.7956 0.16355 54.7127 0.000285926 57.6369C-0.177384 60.84 18.4252 66.0822 38.3675 67.3327C54.3866 68.3379 61.527 66.1544 75.1404 65.2743Z" fill="white"/>
</svg>
