<svg width="178" height="122" viewBox="0 0 178 122" fill="none" xmlns="http://www.w3.org/2000/svg">
<path d="M106.55 25.8828C102.211 17.3998 98.3787 9.05288 94.9853 0.910156C84.9657 7.15332 74.9461 13.3965 64.9203 19.6396C43.2802 18.891 21.6401 18.1423 0 17.3936C8.98117 28.4383 21.2754 41.9084 37.3587 55.5765C36.994 61.0648 36.6293 66.5531 36.2646 72.0414C40.4307 74.6649 44.7266 77.2389 49.1585 79.7448C92.6179 104.328 136.887 115.787 176.539 120.409C152.816 97.2244 127.158 66.2004 106.55 25.889V25.8828Z" fill="white"/>
<path d="M64.3214 19.9914C70.1749 27.5772 76.2695 34.9713 82.6175 42.1426C89.7134 50.1615 97.1184 57.9082 104.808 65.3642C112.497 72.8201 120.489 79.9914 128.735 86.8409C136.251 93.0841 143.984 99.0674 151.914 104.778C158.998 109.877 166.236 114.759 173.622 119.412C174.475 119.95 175.322 120.482 176.181 121.008C176.941 121.485 177.646 120.278 176.886 119.808C169.617 115.297 162.484 110.576 155.505 105.638C147.692 100.113 140.065 94.3154 132.647 88.2702C124.47 81.6001 116.546 74.6206 108.893 67.3565C101.241 60.0924 93.6199 52.2838 86.4251 44.3205C79.9101 37.1059 73.6487 29.6686 67.653 22.0271C66.9422 21.1175 66.2313 20.208 65.5267 19.2984C64.9889 18.5992 63.7774 19.2922 64.3276 20.0038L64.3214 19.9914Z" fill="#2C2E2A"/>
<path d="M37.4885 56.2762C46.2286 62.3709 55.1912 68.1562 64.3455 73.6135C73.716 79.1946 83.2968 84.4292 93.0568 89.305C102.168 93.859 111.439 98.0912 120.841 102.014C129.711 105.714 138.698 109.13 147.778 112.261C156.209 115.162 164.721 117.823 173.3 120.236C174.314 120.521 175.327 120.805 176.347 121.084C177.213 121.319 177.584 119.976 176.718 119.741C168.25 117.421 159.844 114.865 151.512 112.069C142.53 109.049 133.636 105.757 124.859 102.181C115.439 98.3449 106.148 94.1869 97.0065 89.7134C87.3145 84.9738 77.7956 79.8753 68.4806 74.4365C59.1657 68.9977 50.1722 63.3052 41.3331 57.2477C40.2824 56.5299 39.2316 55.7998 38.1869 55.0758C37.4514 54.5623 36.7529 55.7688 37.4823 56.2762H37.4885Z" fill="#2C2E2A"/>
</svg>
