<svg width="160" height="148" viewBox="0 0 160 148" fill="none" xmlns="http://www.w3.org/2000/svg">
<path d="M0.315186 147.078C18.3316 146.488 42.8188 143.129 67.9211 131.11C143.627 94.8514 157.307 12.2574 159.019 0.605884C157.341 6.71033 153.832 15.5931 145.521 22.5344C135.431 30.9782 124.714 31.1821 122.548 38.379C121.598 41.5574 122.063 46.9087 130.591 55.7485C115.854 54.077 104.973 61.543 104.201 69.2765C103.581 75.5821 109.792 80.9188 111.06 81.9631C81.4247 76.438 59.3588 86.5378 56.5966 98.8213C54.7185 107.128 61.8483 115.697 65.971 119.868C55.8015 114.74 44.9946 116.871 40.98 122.81C37.813 127.48 39.671 133.289 40.1736 134.742C36.6851 132.913 31.8307 131.133 27.1709 132.484C23.0007 133.685 21.5531 136.652 17.773 139.831C14.4593 142.572 9.1314 145.7 0.315186 147.078Z" fill="white"/>
</svg>
