<svg width="137" height="173" viewBox="0 0 137 173" fill="none" xmlns="http://www.w3.org/2000/svg">
<path d="M0 28.4212C13.685 36.4154 28.2168 46.1669 42.9155 58.0964C89.8364 96.1555 117.998 139.728 134.563 172.026C137.654 141.312 137.691 100.895 126.305 55.7822C122.831 42.0275 118.69 29.3865 114.252 17.8901C93.7491 12.3028 73.2525 6.72173 52.7559 1.14062C35.1706 10.2362 17.5853 19.3256 0 28.4212Z" fill="white"/>
<path d="M35.6589 52.1937L30.2937 71.9379C41.2096 78.3605 52.7683 86.0516 64.5371 95.2771C97.2229 120.906 119.611 149.059 134.569 172.014C135.058 164.682 137.233 121.005 104.022 86.1073C77.6349 58.3812 45.2149 53.326 35.6651 52.1875L35.6589 52.1937Z" fill="white"/>
<path d="M52.2614 1.62956C58.8381 9.70422 65.0995 18.0264 71.0334 26.5837C78.0057 36.6383 84.5144 47.0085 90.541 57.6572C97.3774 69.7289 103.583 82.1596 109.134 94.881C114.685 107.609 119.568 120.627 123.771 133.856C127.374 145.204 130.471 156.713 133.055 168.333C133.339 169.62 133.623 170.907 133.895 172.2C134.081 173.078 135.422 172.707 135.237 171.829C132.801 160.351 129.865 148.978 126.441 137.76C122.448 124.686 117.794 111.81 112.49 99.2061C106.995 86.1505 100.826 73.3795 93.9901 60.9737C87.9697 50.0466 81.4424 39.4041 74.433 29.0834C68.4497 20.2724 62.1141 11.6966 55.4632 3.3868C54.7276 2.47106 53.9921 1.55531 53.2503 0.64575C52.6817 -0.0472473 51.705 0.942749 52.2675 1.62956H52.2614Z" fill="#2C2E2A"/>
<path d="M35.3375 53.5538C44.3557 60.4714 53.034 67.8283 61.3229 75.5998C69.4325 83.2042 77.1775 91.1984 84.5145 99.5454C91.3446 107.317 97.8286 115.391 103.942 123.738C109.523 131.361 114.802 139.213 119.772 147.251C124.296 154.577 128.561 162.057 132.567 169.68C133.036 170.571 133.5 171.469 133.963 172.366C134.371 173.164 135.577 172.459 135.163 171.66C131.238 164.044 127.053 156.557 122.615 149.231C117.726 141.162 112.521 133.279 107.014 125.613C101.037 117.297 94.7072 109.241 88.0315 101.476C80.7811 93.0423 73.1289 84.9615 65.1058 77.2642C57.0827 69.567 48.1757 61.8265 39.1574 54.7604C38.119 53.9498 37.0806 53.1455 36.0359 52.3411C35.3251 51.7966 34.6328 53.0032 35.3313 53.5415L35.3375 53.5538Z" fill="#2C2E2A"/>
</svg>
