<?xml version="1.0" encoding="UTF-8"?>
<svg id="Layer_1" data-name="Layer 1" xmlns="http://www.w3.org/2000/svg" version="1.1" viewBox="0 0 194 434">
  <defs>
    <style>
      .cls-1 {
        fill: #2ba0ff;
      }

      .cls-1, .cls-2 {
        stroke-width: 0px;
      }

      .cls-2 {
        fill: #fff;
      }
    </style>
  </defs>
  <path class="cls-2" d="M161.4,404.4c5.4-7.8,7.7-21.1,1.4-28.2-10.3-11.7-35.5,2.9-43.9-8-6.2-7.9,5.5-18.1,0-32-6-15.5-23.7-10.8-35.3-26.9-14.5-20.2.4-45.4-14.3-55.3-5.3-3.5-11.3-3.1-14.8-2-15.8,4.7-22.7,35.1-12.3,48.9,5.2,6.8,10.2,3.6,16.8,9.8,17.2,16.2-2.5,51.7,12.5,63.4,7.4,5.7,13.8-1.5,24.4,5,13.6,8.3,8.7,23.4,21.1,32.1,11.9,8.3,34.6,7.3,44.3-6.7Z"/>
  <path class="cls-1" d="M93.2,84c-6.5-14.4-16.2-24.1-21.8-21.6-.4.2-.8.4-1.1.7-1.5,1.3-4,.5-4.7-1.4-.7-1.9-1.5-3.9-2.4-5.8-7.5-16.8-18.9-28-25.3-25.1-6.5,2.9-5.7,18.9,1.9,35.6,7.5,16.8,18.9,28,25.3,25.1.8-.4,1.5-1,2.1-1.7,1.3-1.7,3.8-1.4,4.6.5.4.9.7,1.8,1.2,2.7,6.5,14.4,16.2,24.1,21.8,21.6,5.6-2.5,4.9-16.2-1.6-30.6Z"/>
</svg>