<svg width="301" height="73" viewBox="0 0 301 73" fill="none" xmlns="http://www.w3.org/2000/svg">
<path d="M0 29.4883C19.3714 43.8838 48.0584 60.6301 85.3764 68.3398C197.932 91.5808 288.414 11.922 300.951 0.502706C293.567 5.83319 281.706 12.6986 266.618 13.4118C248.286 14.2968 236.899 5.57151 227.997 11.6994C224.072 14.4105 219.622 20.7004 220.38 37.5717C206.521 23.4203 188.265 22.5669 180.324 30.4499C173.86 36.886 175.428 47.9589 175.789 50.1691C149.917 19.326 117.543 12.0354 103.326 23.2748C93.7007 30.8673 93.2471 46.2713 93.7076 54.3144C87.8111 40.1659 74.5526 33.4904 64.8789 36.6875C57.2621 39.1921 53.8449 47.1504 53.0305 49.1718C51.0722 44.2414 47.6409 38.2248 41.5251 35.8232C36.0599 33.6644 31.8106 35.7271 24.9282 36.0759C18.937 36.3313 10.4838 35.3317 0 29.4883Z" fill="white"/>
</svg>
