<svg width="292" height="184" viewBox="0 0 292 184" fill="none" xmlns="http://www.w3.org/2000/svg">
<path d="M291.935 0.128906C283.405 27.4859 267.895 63.5863 238.855 96.9644C151.257 197.625 18.9077 183.633 0.329263 181.326C10.3934 181.338 25.4895 179.721 39.6433 169.922C56.852 158.035 61.6998 141.699 73.6442 141.426C78.9168 141.315 86.9199 144.292 96.8558 161.102C100.532 137.812 116.576 124.3 128.754 126.388C138.678 128.107 144.227 139.883 145.291 142.267C149.366 94.519 174.18 64.9813 194.172 65.9472C207.696 66.585 217.808 81.1363 222.455 89.2189C218.901 71.4658 226.74 55.808 237.539 52.17C246.035 49.2932 254.151 54.5989 256.163 55.9837C254.837 49.8642 254.165 41.6726 258.207 35.1042C261.812 29.2222 266.97 28.2595 273.441 23.8126C279.044 19.895 286.092 13.055 291.935 0.128906Z" fill="white"/>
</svg>
