<?xml version="1.0" encoding="UTF-8"?>
<svg id="Layer_1" data-name="Layer 1" xmlns="http://www.w3.org/2000/svg" version="1.1" viewBox="0 0 237 229">
  <defs>
    <style>
      .cls-1 {
        fill: #f5e211;
      }

      .cls-1, .cls-2 {
        stroke-width: 0px;
      }

      .cls-2 {
        fill: #fff;
      }
    </style>
  </defs>
  <path class="cls-1" d="M18.2,217.6c10,6.2,23.2,3,29.4-7,6.2-10,3-23.2-7-29.4s-23.2-3-29.4,7c-6.2,10-3,23.2,7,29.4Z"/>
  <path class="cls-2" d="M30.4,190.6c3.1.4,5.9-1.2,6.2-3.5s-2-4.5-5.2-4.8c-3.1-.4-5.9,1.2-6.2,3.5-.3,2.3,2,4.5,5.2,4.8Z"/>
  <path class="cls-2" d="M26.9,216.9c1.8.2,3.3-.3,3.4-1.2s-1.3-1.8-3.1-2c-1.8-.2-3.3.3-3.4,1.2s1.3,1.8,3.1,2Z"/>
</svg>