<svg width="158" height="61" viewBox="0 0 158 61" fill="none" xmlns="http://www.w3.org/2000/svg">
<path d="M0.122931 60.1676C9.25454 51.5778 26.3526 38.105 51.1388 32.2124C107.077 18.9198 152.231 56.1201 157.966 61C158.623 42.1688 149.191 27.4735 137.31 24.7927C135.12 24.2978 129.34 23.4228 121.603 27.4702C121.374 25.8185 119.335 12.7028 107.958 6.3875C97.0358 0.324545 82.0685 3.06435 72.2201 13.7483C69.0649 6.03356 62.4437 0.550678 55.2202 0.039423C44.9758 -0.684855 34.2405 8.64227 33.3797 22.1119C26.1562 20.4142 21.07 21.8104 18.5269 22.7804C6.61652 27.3326 -1.08807 42.349 0.122931 60.161V60.1676Z" fill="white"/>
</svg>
