<svg width="184" height="138" viewBox="0 0 184 138" fill="none" xmlns="http://www.w3.org/2000/svg">
<g clip-path="url(#clip0_8478_14775)">
<path d="M11.3127 85.3386C25.4142 80.5804 39.9028 77.0339 54.6048 74.7172C56.662 74.3945 58.9112 72.3548 59.9169 70.6379C61.0323 68.7352 61.5047 65.9315 60.8129 63.7974C60.1211 61.6634 58.7832 59.5751 56.729 58.4913C54.4859 57.3071 52.3739 57.2036 49.8809 57.5963C35.179 59.913 20.6903 63.4595 6.58876 68.2177C2.19403 69.7002 -1.15536 74.3945 0.380662 79.1405C1.79478 83.506 6.59791 86.9338 11.3157 85.3416L11.3127 85.3386Z" fill="#F5E211"/>
<path d="M52.5073 136.969C75.0496 134.658 90.1762 102.152 86.2936 64.365C82.411 26.5779 60.9895 -2.18104 38.4472 0.129983C15.905 2.441 0.778326 34.9469 4.66092 72.7339C8.54352 110.521 29.9651 139.28 52.5073 136.969Z" fill="#8ED462"/>
<path d="M58.4563 111.941C69.7417 110.784 76.8544 90.032 74.3429 65.59C71.8315 41.1479 60.647 22.2716 49.3617 23.4286C38.0763 24.5855 30.9636 45.3376 33.475 69.7797C35.9865 94.2218 47.1709 113.098 58.4563 111.941Z" fill="#2BA0FF"/>
<mask id="mask0_8478_14775" style="mask-type:luminance" maskUnits="userSpaceOnUse" x="32" y="23" width="43" height="89">
<path d="M58.4563 111.941C69.7417 110.784 76.8544 90.032 74.3429 65.59C71.8315 41.1479 60.647 22.2716 49.3617 23.4286C38.0763 24.5855 30.9636 45.3376 33.475 69.7797C35.9865 94.2218 47.1709 113.098 58.4563 111.941Z" fill="white"/>
</mask>
<g mask="url(#mask0_8478_14775)">
<path d="M43.2539 23.0117C43.7971 22.9565 44.3438 22.9446 44.8906 22.9814C47.3128 23.1409 49.5848 24.1489 51.5342 25.5459C53.9386 27.2693 55.919 29.5231 57.6133 31.9229C59.6927 34.8662 61.3527 38.0928 62.75 41.4053C64.3945 45.3063 65.6637 49.3623 66.6367 53.4785C67.7165 58.0426 68.4366 62.6978 68.8301 67.3711C69.2144 71.9377 69.2846 76.5321 68.9766 81.1055C68.702 85.1729 68.1374 89.2387 67.1641 93.2041C66.3433 96.5506 65.226 99.8567 63.6348 102.923C62.3675 105.363 60.7651 107.717 58.6553 109.519C56.8663 111.048 54.7313 112.109 52.3701 112.36C52.2393 112.374 52.1327 112.333 52.0605 112.256C51.9905 112.181 51.9588 112.078 51.959 111.978C51.9595 111.778 52.089 111.554 52.3535 111.526C52.8676 111.469 53.3789 111.369 53.8779 111.23C56.1062 110.605 58.0057 109.182 59.5479 107.48C61.4753 105.352 62.8979 102.788 64.0205 100.153C65.4106 96.8931 66.3507 93.4428 67.0205 89.9639C67.8029 85.8983 68.1991 81.7589 68.3057 77.6191C68.4244 73.0324 68.1777 68.3505 67.6387 63.8789C67.0997 59.4076 66.2465 54.967 65.0469 50.627C63.9811 46.7702 62.6414 42.9745 60.9277 39.3564C59.4848 36.3067 57.7813 33.3413 55.665 30.708C53.9739 28.6025 51.9994 26.6553 49.6396 25.3223C47.7042 24.2275 45.5226 23.6266 43.2979 23.8398L43.2959 23.8438L43.2686 23.8457C43.1378 23.8583 43.0318 23.8168 42.96 23.7393C42.8901 23.6638 42.8582 23.5614 42.8584 23.4609C42.8588 23.2612 42.9887 23.0379 43.2539 23.0117Z" fill="#2C2E2A" stroke="#2C2E2A" stroke-width="0.15"/>
</g>
<path d="M58.7838 74.7166C60.6672 74.4243 62.5537 74.1503 64.4433 73.8946L62.0813 74.2112C85.0547 71.1578 108.372 71.17 131.346 74.2447L128.984 73.9281C136.917 75.0058 144.795 76.4396 152.6 78.2266C157.123 79.2616 162.435 76.8384 163.535 72.0254C164.565 67.5017 162.173 62.2138 157.327 61.1027C131.349 55.1511 104.441 52.9075 77.85 54.8284C69.8864 55.4038 61.9503 56.3658 54.0629 57.5896C52.0058 57.9092 49.7535 59.958 48.7508 61.6689C47.6354 63.5715 47.163 66.3753 47.8548 68.5093C48.5467 70.6434 49.8846 72.7317 51.9387 73.8155C54.1848 74.9997 56.2938 75.0971 58.7868 74.7105L58.7838 74.7166Z" fill="#F5E211"/>
<path d="M182.933 74.12C188.099 36.451 174.071 3.42166 151.6 0.34696C129.128 -2.72774 106.724 25.3165 101.559 62.9856C96.3928 100.655 110.421 133.684 132.892 136.759C155.363 139.833 177.768 111.789 182.933 74.12Z" fill="#8ED462"/>
<path d="M172.018 72.6268C175.359 48.2603 168.948 27.2596 157.699 25.7203C146.449 24.181 134.62 42.6861 131.279 67.0525C127.937 91.419 134.348 112.42 145.598 113.959C156.848 115.498 168.676 96.9932 172.018 72.6268Z" fill="#2BA0FF"/>
<mask id="mask1_8478_14775" style="mask-type:luminance" maskUnits="userSpaceOnUse" x="130" y="25" width="43" height="90">
<path d="M172.018 72.6268C175.359 48.2603 168.948 27.2596 157.699 25.7203C146.449 24.181 134.62 42.6861 131.279 67.0525C127.937 91.419 134.348 112.42 145.598 113.959C156.848 115.498 168.676 96.9932 172.018 72.6268Z" fill="white"/>
</mask>
<g mask="url(#mask1_8478_14775)">
<path d="M151.691 25.3047L152.1 25.3701C152.505 25.443 152.904 25.5398 153.298 25.6641C155.622 26.394 157.598 27.9292 159.162 29.7539C161.099 32.0152 162.493 34.6928 163.57 37.4434C164.895 40.8257 165.753 44.387 166.317 47.9678C166.897 51.6425 167.174 55.3637 167.21 59.084L167.211 60.6777C167.171 65.3913 166.729 70.2602 166.016 74.7568C165.302 79.2532 164.277 83.7043 162.898 88.0459C161.672 91.9094 160.162 95.7011 158.285 99.2979C156.698 102.337 154.839 105.261 152.579 107.852C150.78 109.914 148.673 111.811 146.211 113.065C144.14 114.118 141.812 114.674 139.483 114.364C139.221 114.329 139.093 114.102 139.093 113.903C139.093 113.803 139.124 113.701 139.194 113.627C139.267 113.551 139.374 113.513 139.504 113.53C140.024 113.6 140.547 113.63 141.073 113.615C143.38 113.552 145.567 112.63 147.467 111.354C149.832 109.768 151.82 107.632 153.526 105.361C155.637 102.551 157.369 99.4624 158.843 96.2725C160.575 92.5234 161.945 88.6094 163.041 84.6279C164.256 80.2145 165.135 75.651 165.684 71.1611C166.232 66.6714 166.472 62.1426 166.351 57.623C166.241 53.5716 165.846 49.5207 165.039 45.5469C164.363 42.2143 163.411 38.9083 161.979 35.8193L161.759 35.3555C160.643 33.0458 159.239 30.8352 157.365 29.0742C155.728 27.5363 153.731 26.4312 151.494 26.1172L151.482 26.1152L151.473 26.1104C151.351 26.0893 151.263 26.0267 151.216 25.9375C151.168 25.8473 151.165 25.7403 151.192 25.6436C151.246 25.4517 151.429 25.268 151.691 25.3047Z" fill="#2C2E2A" stroke="#2C2E2A" stroke-width="0.15"/>
</g>
<path d="M150.683 17.7227C150.771 17.7095 150.852 17.7265 150.919 17.7686C151.007 17.8233 151.064 17.9146 151.091 18.0117C151.143 18.2046 151.077 18.4539 150.827 18.5469C147.412 19.8258 144.195 21.6278 141.333 23.8877C137.118 27.2173 133.694 31.4441 131.025 36.0889C128.965 39.6696 127.343 43.4912 126.083 47.4229V47.4238C126.001 47.6797 125.754 47.7481 125.561 47.6953C125.463 47.6687 125.372 47.6105 125.315 47.5234C125.257 47.4343 125.238 47.3205 125.278 47.1953C125.94 45.132 126.704 43.0986 127.57 41.1113C129.575 36.518 132.172 32.1609 135.46 28.3643C139.555 23.6336 144.719 19.9426 150.592 17.7461L150.683 17.7227Z" fill="#2C2E2A" stroke="#2C2E2A" stroke-width="0.15"/>
<path d="M38.0732 18.8145C38.1425 18.7918 38.2108 18.7892 38.2754 18.8086C38.3742 18.8383 38.4534 18.911 38.5039 18.998C38.6041 19.171 38.6051 19.4301 38.3896 19.5859C36.5259 20.9435 34.8047 22.4979 33.2725 24.2197C29.0891 28.9177 26.4365 34.7748 25.1709 40.9072C25.1445 41.0363 25.0725 41.1261 24.9775 41.1738C24.8849 41.2202 24.7767 41.2233 24.6797 41.1963C24.4867 41.1424 24.3082 40.9569 24.3623 40.6943C24.6523 39.2856 25.0126 37.8919 25.4492 36.5225C27.6906 29.4824 31.9545 23.2397 37.9541 18.8701L38.0732 18.7842V18.8145Z" fill="#2C2E2A" stroke="#2C2E2A" stroke-width="0.15"/>
<path d="M37.5527 114.626C37.7258 114.526 37.9831 114.527 38.1357 114.746C38.5847 115.392 39.0801 116.004 39.6143 116.583C42.7845 120.001 47.2923 121.919 51.9551 121.844L52.0312 121.843V121.854C52.1275 121.868 52.2056 121.912 52.2617 121.977C52.3305 122.056 52.3633 122.159 52.3633 122.26C52.3633 122.361 52.3308 122.465 52.2627 122.545C52.1932 122.627 52.0895 122.68 51.958 122.682C50.7735 122.7 49.586 122.599 48.4199 122.382C43.9562 121.547 39.9957 118.893 37.4219 115.179C37.3467 115.07 37.331 114.957 37.3623 114.855C37.3929 114.756 37.4656 114.677 37.5527 114.626Z" fill="#2C2E2A" stroke="#2C2E2A" stroke-width="0.15"/>
<path d="M152.597 78.2298C156.569 79.1461 160.515 80.1538 164.441 81.2467C168.915 82.4948 174.312 79.7093 175.376 75.0455C176.439 70.3817 173.962 65.4592 169.168 64.1227C165.242 63.0299 161.295 62.0222 157.324 61.1059C152.805 60.0617 147.486 62.5002 146.389 67.307C145.356 71.8369 147.752 77.1095 152.597 78.2298Z" fill="#F5E211"/>
<path d="M167.413 67.6533C167.539 67.6136 167.653 67.6315 167.742 67.6895C167.83 67.7462 167.889 67.8374 167.915 67.9346C167.968 68.1282 167.898 68.3747 167.642 68.457H167.641C166.378 68.8597 165.235 69.7401 164.565 70.8828C163.431 72.8223 163.762 75.2888 165.139 77.0244C165.303 77.2318 165.235 77.4809 165.095 77.6221C165.024 77.6932 164.93 77.7437 164.827 77.7471C164.722 77.7505 164.618 77.7042 164.536 77.6016C162.981 75.6396 162.535 72.9257 163.733 70.6611C164.493 69.2298 165.878 68.1459 167.412 67.6533H167.413Z" fill="#2C2E2A" stroke="#2C2E2A" stroke-width="0.15"/>
</g>
<defs>
<clipPath id="clip0_8478_14775">
<rect width="184" height="137.098" fill="white"/>
</clipPath>
</defs>
</svg>
