<svg width="30" height="18" viewBox="0 0 30 18" fill="none" xmlns="http://www.w3.org/2000/svg">
<path d="M19.7965 1.18773C15.0257 2.48765 11.5637 5.036 12.0682 6.88498C12.1052 7.01648 12.1588 7.14174 12.2307 7.2569C12.5683 7.79985 12.2029 8.5162 11.573 8.63998C10.9431 8.76375 10.3028 8.91041 9.65261 9.08928C4.10185 10.6012 0.0738343 13.5686 0.659283 15.7158C1.24473 17.8631 6.2212 18.3827 11.772 16.8707C17.3227 15.3588 21.3507 12.3914 20.7652 10.2441C20.6889 9.96626 20.5427 9.72107 20.3317 9.49712C19.8752 9.02434 20.0735 8.2508 20.7137 8.10415C21.0107 8.03641 21.3111 7.96105 21.6149 7.87806C26.3856 6.57814 29.8476 4.02977 29.3431 2.18079C28.8385 0.331806 24.5655 -0.108371 19.7965 1.18773Z" fill="#FF705C"/>
</svg>
