<svg width="77" height="65" viewBox="0 0 77 65" fill="none" xmlns="http://www.w3.org/2000/svg">
<path d="M27.9536 61.0301C25.3896 62.2881 22.1924 63.1399 18.9556 63.5226C15.7186 63.9053 12.3783 63.8267 9.52423 63.1739C6.70482 62.529 4.18865 61.2813 2.8427 59.1787L2.84173 59.1789C2.75226 59.0422 2.30495 58.313 1.98558 57.2669C1.68688 56.2885 1.47791 54.9582 1.85329 53.5591L1.93581 53.2783C2.47079 51.6241 3.65577 50.5223 5.00947 49.7175C6.34266 48.9249 7.94111 48.3623 9.41626 47.8387C10.9376 47.2987 12.3366 46.7972 13.4675 46.1195C14.5769 45.4545 15.3278 44.679 15.6616 43.6385L15.6605 43.6377C15.9408 42.7602 15.7669 42.2515 15.4827 41.4435C15.1716 40.5589 14.7836 39.4439 15.1785 37.73L15.1783 37.729C15.8332 34.8993 18.0414 32.8585 20.498 31.3371C22.9688 29.807 25.8844 28.6856 28.2255 27.7834C32.4812 26.1438 35.417 25.6673 37.4997 25.2111C39.5552 24.7608 40.6364 24.3586 41.6477 23.0309L41.6488 23.0317C42.6963 21.6549 42.7273 20.5131 42.7365 18.9281C42.746 17.2917 42.7381 15.3075 44.0611 12.7402L44.062 12.74C46.8224 7.38984 52.3696 5.27055 56.3656 3.71955L56.3665 3.7194C57.6039 3.24029 60.7737 2.00663 64.1316 1.43298C65.8105 1.14617 67.589 1.01419 69.2261 1.24944C70.867 1.48524 72.4408 2.10227 73.5918 3.3785L73.5919 3.37947C73.728 3.52911 74.2149 4.07189 74.6316 4.87323C75.0503 5.67841 75.4346 6.81388 75.2524 8.1091C74.9339 10.372 73.0888 11.8719 70.9773 12.9663C68.8326 14.0779 66.0844 14.9374 63.4459 15.7657C60.7573 16.6097 58.1753 17.4235 56.1819 18.449C54.1569 19.4908 53.0389 20.6016 52.8103 21.8875C52.6041 23.0527 53.1881 23.8783 54.1317 25.059C54.9819 26.1227 56.2529 27.5977 55.8641 29.6795L55.8642 29.6805C55.4239 32.0278 53.2428 33.4185 50.8264 34.3765C48.3454 35.36 45.1656 36.0588 42.077 36.7648C38.9382 37.4822 35.8753 38.2103 33.4524 39.2492C31.0008 40.3003 29.4818 41.5536 29.0208 43.1522C28.4911 44.9966 29.5472 46.587 31.0413 48.6716C31.7372 49.6425 32.5172 50.721 33.0082 51.8685C33.5142 53.0512 33.7438 54.3722 33.2896 55.8149C32.5822 58.0603 30.4792 59.791 27.9536 61.0301Z" fill="#2BA0FF" stroke="#2BA0FF" stroke-width="2"/>
</svg>
