<svg width="140" height="172" viewBox="0 0 140 172" fill="none" xmlns="http://www.w3.org/2000/svg">
<g clip-path="url(#clip0_8577_28683)">
<path d="M16.2575 66.6454C17.1931 65.7559 18.3868 65.5134 18.8971 65.4119C25.1433 64.1986 30.9754 72.553 31.7323 73.6582C28.2211 41.7262 38.2314 17.6563 53.4058 13.0775C59.8197 11.1419 66.9575 12.7528 71.9187 16.1236C86.9442 26.3487 88.5415 57.3067 74.2447 92.8676C76.0626 91.1693 86.1007 82.1049 100.152 83.3431C115.302 84.675 126.599 97.2418 129.75 110.528C132.799 123.369 128.149 136.513 119.612 144.697C106.617 157.162 86.8276 155.974 75.4627 150.899C57.2714 142.784 45.7154 118.071 47.8327 87.6415C47.6594 88.5295 45.889 97.0357 39.2004 99.349C35.7498 100.542 32.5875 99.5427 31.2979 99.1092C17.9751 94.6859 10.835 71.7949 16.264 66.6434L16.2575 66.6454Z" fill="#FF705D"/>
<path d="M46.792 87.7783C47.3067 73.6237 48.839 59.5093 51.4206 45.5823C52.1763 41.4977 53.0287 37.4259 53.9602 33.3794C54.1824 32.4192 55.672 32.762 55.4518 33.7287C52.2248 47.735 50.0461 61.9718 48.9593 76.3042C48.6743 80.1142 48.4604 83.9235 48.3196 87.7386C48.2822 88.7198 46.7522 88.7745 46.7875 87.7868L46.792 87.7783Z" fill="#2C2E2A"/>
<path d="M74.6598 93.5158C71.3191 96.0722 68.3545 99.0821 65.8263 102.441C65.2308 103.232 64.1087 102.191 64.6932 101.41C67.3012 97.9407 70.3857 94.8579 73.8314 92.2261C74.6147 91.6263 75.4366 92.918 74.6598 93.5158Z" fill="#2C2E2A"/>
<path d="M32.5018 73.6314C32.8444 76.4551 33.189 79.2854 33.538 82.107C33.5877 82.5194 33.1817 82.8879 32.8003 82.8994C32.3564 82.9162 32.0641 82.5721 32.008 82.1618C31.6654 79.3381 31.3208 76.5078 30.9718 73.6862C30.9221 73.2738 31.3281 72.9053 31.7095 72.8938C32.1534 72.877 32.4457 73.2211 32.5018 73.6314Z" fill="#2C2E2A"/>
<path d="M107.606 93.288C103.111 90.9131 98.9391 90.3128 98.2808 91.9574C97.6226 93.602 100.736 96.8551 105.225 99.2321C109.72 101.607 113.892 102.207 114.55 100.563C115.208 98.9181 112.094 95.665 107.606 93.288Z" fill="white"/>
</g>
<defs>
<clipPath id="clip0_8577_28683">
<rect width="100" height="148.89" fill="white" transform="matrix(-0.954976 0.296684 0.296684 0.954976 95.498 0)"/>
</clipPath>
</defs>
</svg>
