<svg width="141" height="172" viewBox="0 0 141 172" fill="none" xmlns="http://www.w3.org/2000/svg">
<g clip-path="url(#clip0_8478_12101)">
<path d="M124.108 66.6474C123.172 65.7579 121.979 65.5153 121.468 65.4138C115.222 64.2005 109.39 72.555 108.633 73.6602C112.144 41.7282 102.134 17.6583 86.9595 13.0794C80.5457 11.1439 73.4078 12.7548 68.4467 16.1256C53.4212 26.3506 51.8238 57.3087 66.1206 92.8695C64.3027 91.1712 54.2647 82.1069 40.2132 83.3451C25.0633 84.6769 13.7661 97.2437 10.615 110.53C7.56671 123.371 12.2167 136.515 20.7529 144.699C33.7485 157.164 53.5378 155.976 64.9027 150.901C83.0939 142.786 94.6499 118.073 92.5327 87.6435C92.706 88.5314 94.4764 97.0377 101.165 99.3509C104.616 100.544 107.778 99.5446 109.067 99.1111C122.39 94.6879 129.53 71.7968 124.101 66.6454L124.108 66.6474Z" fill="#FF705D"/>
<path d="M93.5735 87.7822C93.0588 73.6276 91.5265 59.5132 88.9449 45.5862C88.1892 41.5016 87.3368 37.4298 86.4052 33.3833C86.1831 32.4231 84.6935 32.7659 84.9136 33.7326C88.1407 47.7389 90.3194 61.9757 91.4062 76.3081C91.6912 80.1181 91.9051 83.9274 92.0459 87.7425C92.0832 88.7237 93.6133 88.7784 93.5779 87.7907L93.5735 87.7822Z" fill="#2C2E2A"/>
<path d="M65.7054 93.5177C69.0462 96.0742 72.0108 99.0841 74.539 102.443C75.1345 103.234 76.2566 102.193 75.672 101.412C73.064 97.9427 69.9795 94.8598 66.5338 92.2281C65.7506 91.6283 64.9286 92.92 65.7054 93.5177Z" fill="#2C2E2A"/>
<path d="M107.864 73.6353C107.521 76.4591 107.177 79.2893 106.828 82.1109C106.778 82.5233 107.184 82.8918 107.565 82.9033C108.009 82.9201 108.301 82.576 108.358 82.1657C108.7 79.342 109.045 76.5117 109.394 73.6901C109.443 73.2777 109.038 72.9092 108.656 72.8977C108.212 72.8809 107.92 73.225 107.864 73.6353Z" fill="#2C2E2A"/>
<path d="M32.7599 93.2919C37.2549 90.917 41.4266 90.3167 42.0849 91.9613C42.7432 93.6059 39.6294 96.859 35.1409 99.236C30.646 101.611 26.4742 102.211 25.8159 100.567C25.1577 98.922 28.2715 95.6689 32.7599 93.2919Z" fill="white"/>
</g>
<defs>
<clipPath id="clip0_8478_12101">
<rect width="100" height="148.89" fill="white" transform="translate(44.8672 0.00195312) rotate(17.2585)"/>
</clipPath>
</defs>
</svg>
