<svg width="157" height="179" viewBox="0 0 157 179" fill="none" xmlns="http://www.w3.org/2000/svg">
<g clip-path="url(#clip0_8478_12125)">
<path d="M22.3133 79.1595C23.0839 78.1237 24.2189 77.6816 24.7044 77.4947C30.653 75.2361 37.8219 82.476 38.7558 83.4362C29.8612 52.5677 35.6288 27.1453 49.8026 20.0506C55.7934 17.0517 63.1013 17.4243 68.5638 19.9015C85.1103 27.4201 91.9533 57.6546 83.9174 95.1299C85.4197 93.147 93.7686 82.5064 107.826 81.3351C122.981 80.069 136.253 90.5297 141.619 103.086C146.808 115.221 144.463 128.964 137.444 138.482C126.76 152.976 107.057 155.174 94.9943 152.108C75.6873 147.207 60.0939 124.821 57.0012 94.4753C56.9816 95.3798 56.6848 104.063 50.4874 107.481C47.2902 109.244 44.004 108.797 42.6595 108.59C28.7782 106.499 17.8463 85.1567 22.3194 79.1564L22.3133 79.1595Z" fill="#EBC1FF"/>
<path d="M55.9992 94.788C54.0972 80.7523 53.205 66.5831 53.3786 52.4199C53.4281 48.2663 53.5751 44.1088 53.8043 39.9627C53.8598 38.9788 55.386 39.0631 55.3336 40.0531C54.5375 54.4043 54.8135 68.8042 56.1819 83.1124C56.5496 86.9153 56.9871 90.7055 57.4977 94.4889C57.6279 95.4621 56.1295 95.7765 55.9962 94.7972L55.9992 94.788Z" fill="#2C2E2A"/>
<path d="M84.4369 95.6988C81.58 98.7865 79.1709 102.257 77.2513 105.997C76.7991 106.878 75.5161 106.043 75.9593 105.174C77.9387 101.312 80.4536 97.7488 83.4011 94.569C84.0708 93.8446 85.1006 94.9776 84.4369 95.6988Z" fill="#2C2E2A"/>
<path d="M39.5097 83.2806C40.3278 86.0048 41.1491 88.7351 41.9733 91.4562C42.0924 91.854 41.7551 92.2863 41.3812 92.3625C40.9466 92.4546 40.6 92.1653 40.4748 91.7705C39.6567 89.0463 38.8355 86.316 38.0113 83.5949C37.8921 83.1971 38.2295 82.7648 38.6033 82.6885C39.0379 82.5965 39.3845 82.8858 39.5097 83.2806Z" fill="#2C2E2A"/>
<path d="M116.863 89.868C112.03 88.2928 107.817 88.4112 107.448 90.1439C107.079 91.8765 110.701 94.5523 115.529 96.1306C120.362 97.7059 124.575 97.5874 124.944 95.8548C125.313 94.1221 121.691 91.4464 116.863 89.868Z" fill="white"/>
</g>
<defs>
<clipPath id="clip0_8478_12125">
<rect width="100" height="148.89" fill="white" transform="matrix(-0.890549 0.454888 0.454888 0.890549 89.0551 0)"/>
</clipPath>
</defs>
</svg>
