<svg width="112" height="112" viewBox="0 0 112 112" fill="none" xmlns="http://www.w3.org/2000/svg">
<path d="M60.9268 107.073C89.1337 104.352 109.794 79.2801 107.073 51.0731C104.352 22.8662 79.2802 2.20574 51.0732 4.92673C22.8663 7.64772 2.2058 32.7198 4.92679 60.9267C7.64778 89.1337 32.7198 109.794 60.9268 107.073Z" fill="white"/>
<mask id="mask0_8478_15083" style="mask-type:luminance" maskUnits="userSpaceOnUse" x="4" y="4" width="104" height="104">
<path d="M60.9268 107.073C89.1337 104.352 109.794 79.2801 107.073 51.0731C104.352 22.8662 79.2802 2.20574 51.0732 4.92673C22.8663 7.64772 2.2058 32.7198 4.92679 60.9267C7.64778 89.1337 32.7198 109.794 60.9268 107.073Z" fill="white"/>
</mask>
<g mask="url(#mask0_8478_15083)">
<path d="M32.1768 25.4717C32.2984 25.4492 32.4246 25.4784 32.5283 25.5391C32.6318 25.5998 32.7189 25.6952 32.7598 25.8125C32.8012 25.9316 32.7932 26.0685 32.7158 26.2041C29.9222 31.0976 27.4382 36.1747 25.3086 41.3926C21.6796 50.273 19.0571 59.5566 17.4346 69.0117C16.0844 76.8889 15.4396 84.8746 15.4209 92.8643C15.4209 93.0206 15.3593 93.1433 15.2637 93.2256C15.1695 93.3065 15.046 93.3457 14.9258 93.3457C14.8055 93.3457 14.6821 93.3065 14.5879 93.2256C14.4922 93.1433 14.4307 93.0207 14.4307 92.8643L14.4434 91.2461C14.4926 87.4695 14.6807 83.6943 15.0205 79.9336C15.8308 70.98 17.4818 62.0972 20.0283 53.4717C22.8831 43.8065 26.8598 34.48 31.8516 25.7246V25.7217L31.8613 25.7041C31.9391 25.5692 32.0532 25.4946 32.1768 25.4717Z" fill="#2C2E2A" stroke="black" stroke-width="0.15"/>
<path d="M49.917 35.7666C50.0394 35.7449 50.1656 35.7734 50.2695 35.834C50.3733 35.8946 50.4602 35.99 50.5 36.1074C50.5404 36.2269 50.5299 36.3634 50.4492 36.498C47.6855 41.1117 45.2124 45.8934 43.0566 50.8203C39.0734 59.917 36.1942 69.4955 34.4375 79.2676C33.0464 87.0104 32.3715 94.8769 32.3604 102.743C32.3602 102.899 32.2985 103.021 32.2031 103.104C32.109 103.184 31.9855 103.224 31.8652 103.224C31.745 103.224 31.6215 103.184 31.5273 103.104C31.4318 103.021 31.3701 102.899 31.3701 102.742C31.3776 98.5865 31.5646 94.4341 31.9492 90.2969C32.7968 81.1711 34.5744 72.127 37.3115 63.3779C40.3063 53.8037 44.4436 44.603 49.5928 35.9961L49.6143 35.959H49.624C49.7022 35.8493 49.805 35.7865 49.917 35.7666Z" fill="#2C2E2A" stroke="black" stroke-width="0.15"/>
</g>
<mask id="mask1_8478_15083" style="mask-type:luminance" maskUnits="userSpaceOnUse" x="4" y="4" width="104" height="104">
<path d="M60.9268 107.077C89.1337 104.356 109.794 79.284 107.073 51.0771C104.352 22.8701 79.2802 2.20964 51.0732 4.93063C22.8663 7.65162 2.2058 32.7237 4.92679 60.9306C7.64778 89.1376 32.7198 109.798 60.9268 107.077Z" fill="white"/>
</mask>
<g mask="url(#mask1_8478_15083)">
<path d="M107.798 38.648C101.424 18.3351 84.2159 3.44845 63.7089 0.526348C35.5478 -3.48921 16.6717 17.2641 15.2871 18.8352C18.0189 24.2391 22.5681 31.6842 29.9424 38.9764C39.5932 48.5227 49.6955 53.4637 56.0323 55.9716C73.2888 50.1983 90.5415 44.425 107.798 38.6518V38.648Z" fill="#F5E211"/>
<path d="M24.9248 8.41016C25.0301 8.34273 25.1646 8.32248 25.3135 8.37207C29.9118 9.90732 34.3683 11.8577 38.6045 14.2148C48.0369 19.4634 56.2814 26.7141 62.7178 35.373C67.0727 41.2294 70.5832 47.7021 73.168 54.5254H73.1699C73.2249 54.6721 73.209 54.8058 73.1436 54.9111C73.0795 55.0139 72.9728 55.0828 72.8574 55.1143C72.6275 55.1768 72.332 55.0971 72.2197 54.8027V54.8018C71.0006 51.5844 69.5685 48.4529 67.9355 45.4219C63.4653 37.1302 57.5003 29.6735 50.335 23.5557C43.1586 17.4303 34.8199 12.7072 25.9062 9.61816L25.042 9.32422C24.7397 9.2227 24.6575 8.93107 24.7207 8.7002C24.7525 8.58434 24.8215 8.4763 24.9248 8.41016Z" fill="#2C2E2A" stroke="#2C2E2A" stroke-width="0.15"/>
<path d="M47.2461 4.92871C47.3514 4.86244 47.4851 4.84467 47.6328 4.89746C50.9838 6.10039 54.2494 7.55357 57.3838 9.24219C65.8455 13.8 73.3623 20.0913 79.3174 27.6416C84.0058 33.5853 87.7267 40.2618 90.3193 47.3711C90.3731 47.5187 90.3562 47.6524 90.29 47.7578C90.2253 47.861 90.1178 47.9295 90.002 47.9609C89.7715 48.0235 89.4763 47.9436 89.3682 47.6465L88.8916 46.3789C87.7518 43.4331 86.4142 40.5674 84.8877 37.8047C80.2725 29.4504 73.9462 22.0537 66.375 16.2383C60.9823 12.0968 54.9864 8.74163 48.6338 6.32031L47.3584 5.84863C47.061 5.7407 46.9803 5.44616 47.043 5.21582C47.0745 5.10031 47.1432 4.99356 47.2461 4.92871Z" fill="#2C2E2A" stroke="#2C2E2A" stroke-width="0.15"/>
<path d="M105.619 89.1035C121.144 67.1896 114.386 41.8871 113.378 38.3418C103.604 39.0359 90.8483 41.0064 76.7715 46.2013C68.6993 49.1793 61.7803 52.6276 56.0294 55.9752C56.7683 61.853 57.2012 71.2873 54.2903 82.2778C50.5061 96.5637 43.0124 106.173 38.7207 110.935C64.639 118.03 91.4715 109.077 105.619 89.111V89.1035Z" fill="#FF705C"/>
<mask id="mask2_8478_15083" style="mask-type:luminance" maskUnits="userSpaceOnUse" x="38" y="38" width="78" height="76">
<path d="M105.619 89.1035C121.144 67.1896 114.386 41.8871 113.378 38.3418C103.604 39.0359 90.8483 41.0064 76.7715 46.2013C68.6993 49.1793 61.7803 52.6276 56.0294 55.9752C56.7683 61.853 57.2012 71.2873 54.2903 82.2778C50.5061 96.5637 43.0124 106.173 38.7207 110.935C64.639 118.03 91.4715 109.077 105.619 89.111V89.1035Z" fill="white"/>
</mask>
<g mask="url(#mask2_8478_15083)">
<path d="M112 74.748C112.284 74.5987 112.551 74.7414 112.672 74.9482C112.733 75.0519 112.761 75.1774 112.736 75.2979C112.718 75.3898 112.669 75.4751 112.588 75.543L112.495 75.6055C108.728 77.5918 104.874 79.4213 100.95 81.0791C92.7917 84.518 84.3112 87.2062 75.6406 89.0098C65.6025 91.0993 55.3267 91.9992 45.0762 91.6924V91.6973L44.999 91.6943C44.8428 91.6899 44.7212 91.6254 44.6396 91.5283C44.5593 91.4326 44.5205 91.3088 44.5205 91.1885C44.5205 91.0684 44.5593 90.9461 44.6406 90.8535C44.7236 90.7592 44.8473 90.7008 45.0039 90.7051C50.8484 90.8841 56.7041 90.6753 62.5225 90.0674C71.9549 89.0827 81.2682 87.0347 90.2646 84.0508C97.7542 81.5667 105.02 78.4296 111.999 74.748H112Z" fill="#2C2E2A" stroke="#2C2E2A" stroke-width="0.15"/>
<path d="M112.783 55.1533C113.066 55.0031 113.333 55.1459 113.454 55.3525C113.515 55.4562 113.544 55.5816 113.52 55.7021C113.495 55.8249 113.416 55.9364 113.278 56.0098C109.679 57.9102 105.998 59.654 102.245 61.2334C93.9556 64.721 85.3108 67.3685 76.4795 69.0713C66.3786 71.0205 56.0498 71.7296 45.7773 71.2031C45.4594 71.1874 45.3024 70.9286 45.3018 70.6895C45.3015 70.5693 45.3402 70.447 45.4219 70.3555C45.5052 70.2622 45.6286 70.2063 45.7852 70.2139L46.8467 70.2637C52.1524 70.4931 57.4687 70.3974 62.7588 69.9639C72.5156 69.162 82.1653 67.2039 91.4785 64.1865L92.8535 63.7324C99.7158 61.4215 106.381 58.5382 112.783 55.1533Z" fill="#2C2E2A" stroke="#2C2E2A" stroke-width="0.15"/>
</g>
</g>
</svg>
