<svg width="488" height="455" viewBox="0 0 488 455" fill="none" xmlns="http://www.w3.org/2000/svg">
<path d="M475.054 62.2585C472.479 56.207 467.105 46.1282 456.437 38.0581C432.358 19.848 402.803 28.1352 399.017 29.2623C402.676 20.092 410.312 15.0401 416.588 16.2681C417.745 16.4941 420.708 17.2973 423.572 20.8754C424.031 20.1318 427.78 14.2732 434.581 13.6515C441.11 13.0546 447.725 17.5353 450.203 24.7428C453.348 21.7105 457.688 20.4819 461.267 21.765C466.344 23.5851 469.534 30.3295 467.104 36.9714C470.935 37.6856 473.084 39.4312 474.102 40.4345C478.865 45.1376 479.398 53.9693 475.055 62.2554L475.054 62.2585Z" fill="white"/>
<path d="M0 372.984C7.02882 383.379 18.0882 396.559 34.4775 406.89C83.9114 438.044 137.642 415.475 145.141 412.163C140.922 413.438 134.388 414.665 127.217 412.343C118.501 409.53 114.407 403.292 109.364 404.685C107.139 405.303 104.159 407.562 102.114 415.864C97.6332 406.562 89.2001 402.921 84.3577 405.334C80.4131 407.307 79.5725 412.945 79.4273 414.079C71.6928 394.572 57.5602 385.318 49.2995 388.246C43.7092 390.22 41.3052 397.597 40.3767 401.573C39.6266 393.68 34.3638 388.104 29.3761 387.941C25.4508 387.807 22.7174 391.056 22.0482 391.891C21.832 389.157 21.0802 385.638 18.5562 383.394C16.3025 381.382 14.0179 381.63 10.7434 380.581C7.89977 379.646 4.08105 377.667 0 372.984Z" fill="white"/>
</svg>
