<svg width="45" height="83" viewBox="0 0 45 83" fill="none" xmlns="http://www.w3.org/2000/svg">
<path d="M43.3785 56.4308C40.7378 43.0409 34.4027 33.0085 29.2131 34.034C28.8438 34.1098 28.4884 34.2328 28.1572 34.408C26.5961 35.2307 24.6957 34.0841 24.4788 32.3255C24.2619 30.567 23.984 28.7754 23.6195 26.9501C20.5485 11.371 13.1712 -0.301954 7.14439 0.887599C1.11759 2.07715 -1.29131 15.6757 1.77966 31.2547C4.85063 46.8338 12.2281 58.5066 18.2549 57.3171C19.0349 57.1615 19.7387 56.8072 20.3967 56.2705C21.7881 55.1065 23.8787 55.8045 24.1566 57.596C24.2847 58.4269 24.4331 59.2687 24.6018 60.1215C27.2425 73.5114 33.5776 83.5437 38.7673 82.5182C43.9569 81.4927 46.009 69.8152 43.3785 56.4308Z" fill="#F5E211"/>
</svg>
