<svg width="154" height="192" viewBox="0 0 154 192" fill="none" xmlns="http://www.w3.org/2000/svg">
<g clip-path="url(#clip0_8577_28607)">
<path d="M108.311 63.2175C110.458 58.8697 112.611 54.5062 114.785 50.1269C116.329 47.0131 117.521 43.8783 118.12 40.5492C119.354 33.7073 117.894 26.7603 112.753 22.7591C108.216 19.2988 101.721 18.0753 95.4461 19.283C90.568 20.2177 86.0889 22.6331 82.6181 26.2772C80.5912 28.3986 78.9582 30.898 78.2546 33.5708C77.4302 36.7056 77.8712 39.8929 79.3047 42.5498C80.8013 45.3538 83.4005 47.4752 86.6455 48.3101C89.8538 49.145 93.6555 48.8825 96.8481 47.1549C101.805 44.4612 103.128 39.0002 103.611 34.1851C104.178 28.5509 103.785 22.8379 105.533 17.1879C106.893 12.8086 109.802 9.08571 114.171 6.84356C119.511 4.08683 125.634 3.69301 131.068 3.79278C133.242 3.83479 135.39 3.99757 137.511 4.22335C138.378 4.31787 138.892 2.94213 138.021 2.85286C131.614 2.18075 124.704 1.95496 117.983 3.97131C114.197 5.10026 110.495 7.10086 107.854 10.1989C103.958 14.7672 103.139 20.5065 102.776 25.7259C102.587 28.4249 102.524 31.1186 102.278 33.8228C102.057 36.2487 101.705 38.7429 100.692 41.0953C99.7308 43.3322 98.061 45.1648 95.8189 46.257C92.6053 47.8113 88.6514 47.806 85.6794 46.5563C79.8666 44.1461 77.4932 37.0049 80.6332 31.0871C82.6233 27.3432 86.3095 24.0298 90.3317 22.2078C96.1497 19.5508 102.881 19.5718 108.101 21.7457C110.684 22.8379 112.984 24.4972 114.538 26.7656C116.355 29.4435 117.19 32.7411 117.169 36.1752C117.148 39.415 116.471 42.7284 115.274 45.9052C114.659 47.5382 113.866 49.0977 113.089 50.6678C112.076 52.7156 111.062 54.7635 110.054 56.8008C109.046 58.8382 108.043 60.8703 107.045 62.9024C106.646 63.7111 107.917 64.0261 108.311 63.2227V63.2175Z" fill="#2C2E2A"/>
<path d="M152.702 121.246C150.024 99.8799 136.083 82.6726 117.374 72.4963C115.615 71.5722 114.943 69.3878 115.835 67.3872C117.799 62.9922 116.507 58.0668 112.601 56.1187C107.927 53.824 101.868 56.4548 99.6518 61.4536L99.552 61.6794C98.6804 63.6485 96.5275 64.7932 94.5322 64.3784C73.0296 60.0569 49.9256 62.7664 32.5713 74.1451C11.6883 87.4825 -5.38767 116.415 1.58556 129.453C4.49982 135.072 10.7537 136.878 11.0267 136.957C18.9346 139.152 28.7171 133.901 36.1104 123.378C41.6974 130.235 50.6869 132.856 58.9466 129.889C66.2769 127.216 70.4252 121.062 72.5413 116.693C75.319 118.505 78.6219 120.374 82.4813 122.034C86.3302 123.703 89.9481 124.811 93.1774 125.573C91.4079 130.23 89.7118 137.65 92.6366 145.111C95.9079 153.676 103.669 158.869 112.37 158.144C109.261 172.143 111.498 184.352 118.009 189.366C118.235 189.545 123.407 193.472 129.425 191.393C143.686 186.336 155.753 147.847 152.697 121.251L152.702 121.246Z" fill="#F5E211"/>
<path d="M61.5146 112.939C59.1307 118.542 52.6983 121.194 47.1061 118.91C41.4928 116.657 38.7676 110.44 41.0622 104.963C43.3779 99.4603 49.9048 96.672 55.6073 98.7934C61.2888 100.946 63.9195 107.3 61.5146 112.934V112.939Z" fill="#2C2E2A"/>
<path d="M121.643 139.427C118.991 145.424 112.516 148.123 107.155 145.513C101.768 142.93 99.4522 136.13 102.015 130.259C104.598 124.362 111.167 121.527 116.638 123.974C122.094 126.457 124.315 133.394 121.643 139.422V139.427Z" fill="#2C2E2A"/>
<path d="M107.97 91.0549C105.323 97.0357 98.6545 100.029 93.0308 97.7918C87.386 95.5864 84.8498 89.091 87.407 83.2415C89.9852 77.3605 96.7484 74.2309 102.482 76.305C108.195 78.4106 110.637 85.0426 107.97 91.0549Z" fill="#2C2E2A"/>
<path d="M107.97 91.0549C105.323 97.0357 98.6545 100.029 93.0308 97.7918C87.386 95.5864 84.8498 89.091 87.407 83.2415C89.9852 77.3605 96.7484 74.2309 102.482 76.305C108.195 78.4106 110.637 85.0426 107.97 91.0549Z" fill="#F5F1E4"/>
<path d="M103.501 89.3161C102.02 92.6767 98.2501 94.3779 95.068 93.1387C91.8807 91.9048 90.463 88.2344 91.9175 84.9158C93.3772 81.5867 97.1789 79.8434 100.398 81.0354C103.606 82.2378 104.992 85.9555 103.506 89.3213L103.501 89.3161Z" fill="#8ED462"/>
<path d="M142.494 7.33905L135.216 6.67743C134.019 6.57241 133.31 5.48547 133.646 4.26201L134.26 2.04612C134.602 0.822652 135.862 -0.0962594 137.07 0.00350813L144.384 0.612615C145.587 0.717634 146.285 1.81508 145.938 3.04904L145.308 5.29119C144.962 6.52516 143.696 7.44407 142.499 7.3338L142.494 7.33905Z" fill="#2C2E2A"/>
<path d="M36.5781 122.96C35.5542 121.6 34.7455 120.051 34.2047 118.491C34.0944 118.171 33.7846 117.945 33.4275 118.029C33.1125 118.098 32.8447 118.449 32.9549 118.77C33.5798 120.571 34.4777 122.251 35.6434 123.795C35.8482 124.068 36.3155 124.047 36.5466 123.837C36.8249 123.59 36.7829 123.233 36.5781 122.96Z" fill="#2C2E2A"/>
<path d="M112.474 158.818C115.494 158.592 118.466 157.621 121.149 155.961C121.863 155.52 121.359 154.265 120.639 154.712C118.035 156.324 115.194 157.243 112.264 157.463C111.928 157.489 111.697 157.936 111.75 158.267C111.813 158.666 112.128 158.839 112.469 158.813L112.474 158.818Z" fill="#2C2E2A"/>
<path d="M40.1168 77.145C40.6261 78.8043 45.8088 78.6888 51.7108 76.8615C57.6339 75.0079 62.0604 72.1094 61.5826 70.4081C61.0995 68.712 55.8748 68.8906 49.9203 70.7862C43.9867 72.6555 39.6022 75.491 40.1115 77.145H40.1168Z" fill="#F5F1E4"/>
<path d="M33.1438 81.0762C33.6584 81.8638 35.0288 81.9478 36.2103 81.2547C37.3918 80.5616 37.9326 79.3539 37.418 78.561C36.9034 77.7681 35.5277 77.6946 34.3462 78.3929C33.1648 79.0861 32.6292 80.2885 33.1438 81.0762Z" fill="#F5F1E4"/>
<path d="M93.9387 125.213C93.9912 125.097 93.9177 125.25 93.9545 125.181C93.9755 125.134 94.0017 125.092 94.0227 125.045C94.0647 124.966 94.1067 124.887 94.154 124.809C94.2433 124.651 94.3378 124.494 94.4323 124.341C94.6371 124.021 94.8629 123.711 95.1044 123.417C95.1097 123.407 95.1884 123.312 95.1464 123.365C95.0939 123.428 95.1989 123.307 95.2094 123.291C95.2672 123.223 95.3302 123.155 95.3932 123.092C95.5245 122.955 95.6558 122.818 95.7923 122.687C96.0653 122.425 96.3594 122.183 96.6639 121.957C96.9422 121.747 96.958 121.248 96.7427 121.012C96.4854 120.734 96.1336 120.75 95.8343 120.975C94.5058 121.963 93.4609 123.296 92.7415 124.803C92.5892 125.124 92.8203 125.554 93.1248 125.643C93.4871 125.749 93.7864 125.554 93.9492 125.213H93.9387Z" fill="#2C2E2A"/>
<path d="M73.1396 116.572C73.8485 115.265 74.2738 113.831 74.3631 112.356C74.3841 112.014 74.1111 111.678 73.7593 111.684C73.4074 111.684 73.0924 111.951 73.0714 112.314C72.9979 113.553 72.6566 114.797 72.0737 115.874C71.9109 116.173 71.9319 116.588 72.247 116.772C72.5253 116.935 72.9664 116.893 73.1396 116.572Z" fill="#2C2E2A"/>
</g>
<defs>
<clipPath id="clip0_8577_28607">
<rect width="153.175" height="192" fill="white"/>
</clipPath>
</defs>
</svg>
