<svg width="185" height="158" viewBox="0 0 185 158" fill="none" xmlns="http://www.w3.org/2000/svg">
<path d="M91.5572 47.5337C97.6725 42.9072 103.373 38.2018 108.684 33.4906C113.757 41.5237 118.83 49.5569 123.907 57.5922C139.849 64.6297 155.79 71.6673 171.732 78.7049C161.356 83.5614 147.73 89.0149 131.289 93.2846C129.631 97.3889 127.973 101.493 126.315 105.598C122.377 106.039 118.363 106.399 114.274 106.663C74.1745 109.251 38.0851 102.048 7.73621 91.5075C33.0459 83.0188 62.5034 69.5276 91.555 47.5382L91.5572 47.5337Z" fill="white"/>
<path d="M124.218 58.0564C117.319 61.5024 110.314 64.725 103.202 67.6974C95.2519 71.0221 87.1731 74.0412 78.9901 76.75C70.8071 79.4588 62.5044 81.8553 54.1308 83.9299C46.498 85.8207 38.7996 87.4474 31.0531 88.8075C24.1348 90.0204 17.1804 91.0223 10.1987 91.8063C9.39212 91.8976 8.59218 91.9865 7.78543 92.0666C7.06769 92.1455 6.97977 91.0245 7.69535 90.9501C14.5421 90.228 21.364 89.3059 28.1498 88.1727C35.7462 86.906 43.3035 85.377 50.7952 83.595C59.0567 81.6266 67.243 79.3453 75.3319 76.7624C83.4208 74.1796 91.678 71.1914 99.6804 67.9418C106.928 64.9964 114.07 61.8009 121.091 58.3644C121.924 57.9543 122.758 57.5443 123.587 57.1321C124.222 56.8138 124.857 57.7403 124.209 58.0632L124.218 58.0564Z" fill="#2C2E2A"/>
<path d="M130.95 93.7444C122.483 95.0988 113.963 96.1512 105.418 96.8988C96.6739 97.6604 87.8985 98.0972 79.119 98.2112C70.9225 98.3195 62.7222 98.1383 54.5362 97.6875C46.8134 97.2615 39.1052 96.5882 31.4296 95.6761C24.3044 94.8255 17.2054 93.7719 10.1439 92.5152C9.30976 92.3663 8.47559 92.2175 7.63909 92.062C6.92974 91.9292 7.13133 90.8265 7.84069 90.9592C14.7891 92.2442 21.775 93.3373 28.7917 94.2294C36.3567 95.1875 43.9544 95.9181 51.5666 96.4012C59.7357 96.9213 67.9234 97.1628 76.1142 97.1236C84.7967 97.0844 93.4796 96.7245 102.134 96.0467C110.788 95.3688 119.298 94.3945 127.825 93.1015C128.837 92.9496 129.854 92.7886 130.865 92.63C131.578 92.5155 131.661 93.6344 130.955 93.7465L130.95 93.7444Z" fill="#2C2E2A"/>
</svg>
