<svg width="73" height="96" viewBox="0 0 73 96" fill="none" xmlns="http://www.w3.org/2000/svg">
<path d="M66.2754 1.48207C75.7067 6.56434 74.1275 34.2978 64.993 37.9287C59.2964 40.1918 54.5525 31.5282 48.6513 33.7012C38.5215 37.44 43.1377 66.43 34.2478 68.7803C30.3634 69.8045 28.2943 64.5915 24.1444 65.6449C15.3143 67.8906 17.6365 93.3298 8.87929 95.2234C6.33472 95.7735 4.12336 94.0565 3.80079 93.8033C-1.83719 89.4213 2.09073 76.621 3.0721 73.4062C4.68259 68.1461 6.74066 61.4469 12.7669 57.7568C18.4619 54.2733 21.7568 57.1173 25.7057 53.6285C29.5682 50.213 27.5518 46.488 30.8336 35.6732C32.6901 29.5564 35.288 21.0089 41.3399 19.1333C44.8868 18.0375 45.952 20.3615 48.9375 19.1609C55.6045 16.4737 53.2291 3.63566 59.8374 0.950921C62.8846 -0.288419 66.0588 1.3619 66.2754 1.48207Z" fill="#F5E211"/>
</svg>
