<svg width="145" height="165" viewBox="0 0 145 165" fill="none" xmlns="http://www.w3.org/2000/svg">
<path d="M138.336 53.0822C125.965 56.1857 112.544 60.457 98.5051 66.374C53.6952 85.245 22.144 112.591 2.08662 133.83C6.59825 109.399 15.6491 78.1574 34.5824 45.8523C40.3568 36.0031 46.397 27.1646 52.4093 19.2774C69.5089 19.5655 86.6022 19.857 103.696 20.1485C115.242 31.128 126.79 42.1027 138.336 53.0822Z" fill="white"/>
<path d="M105.439 63.4421L105.15 79.9055C95.2715 82.4166 84.6113 85.7635 73.4439 90.2491C42.4273 102.712 18.8015 119.439 2.0849 133.818C3.3547 128.042 11.4854 93.8 44.9903 74.2925C71.6107 58.7939 97.8002 62.1704 105.436 63.4359L105.439 63.4421Z" fill="white"/>
<path d="M103.969 20.6382C97.0722 25.4008 90.3638 30.4255 83.8558 35.7054C76.2089 41.9092 68.8494 48.4611 61.7999 55.3364C53.8049 63.1296 46.2166 71.3417 39.0693 79.9258C31.9205 88.5146 25.2223 97.4782 19.0024 106.757C13.6683 114.717 8.68971 122.915 4.08261 131.315C3.57376 132.245 3.06491 133.176 2.56422 134.114C2.22354 134.752 1.2704 134.163 1.61108 133.526C6.07157 125.203 10.8953 117.074 16.0617 109.174C22.0846 99.9679 28.574 91.0629 35.5039 82.5141C42.6833 73.6594 50.3194 65.1759 58.3894 57.1245C65.4967 50.0326 72.9317 43.2746 80.667 36.8735C87.2703 31.4086 94.093 26.2045 101.099 21.2769C101.874 20.7345 102.648 20.1921 103.425 19.6558C104.02 19.248 104.553 20.2325 103.964 20.6369L103.969 20.6382Z" fill="#2C2E2A"/>
<path d="M105.382 64.5671C96.8583 67.887 88.499 71.6228 80.3476 75.7664C72.3723 79.8212 64.5912 84.2592 57.0461 89.0613C50.022 93.5327 43.1972 98.3161 36.5979 103.393C30.5721 108.03 24.7289 112.912 19.0828 118.007C13.9404 122.652 8.96399 127.475 4.15619 132.466C3.593 133.049 3.0332 133.638 2.4734 134.228C1.97882 134.753 1.20582 133.937 1.70518 133.413C6.44949 128.409 11.3652 123.563 16.4407 118.899C22.0316 113.762 27.8245 108.839 33.8027 104.152C40.29 99.0682 46.9911 94.2644 53.8944 89.7631C61.3921 84.8746 69.121 80.3488 77.0504 76.2029C84.9797 72.0569 93.6019 68.076 102.158 64.6413C103.143 64.2482 104.126 63.8599 105.114 63.473C105.786 63.2119 106.05 64.2998 105.389 64.5589L105.382 64.5671Z" fill="#2C2E2A"/>
</svg>
