<svg width="213" height="167" viewBox="0 0 213 167" fill="none" xmlns="http://www.w3.org/2000/svg">
<path d="M202.244 93.2208C195.858 104.819 177.896 134.703 159.185 133.198C136.921 131.406 116.3 85.3917 116.989 15.307C83.9112 17.9261 50.8386 20.5528 17.7604 23.1719C24.6998 95.2538 42.8299 144.526 65.8472 146.736C71.1112 147.242 86.734 146.259 108.906 106.758L202.245 93.2141L202.244 93.2208Z" fill="white"/>
<path d="M69.3001 146.58C100.627 142.076 131.953 137.578 163.281 133.074C154.841 122.896 146.399 112.725 137.959 102.547L108.912 106.766C95.7101 120.038 82.5084 133.309 69.3001 146.58Z" fill="white"/>
<path d="M65.7307 147.487C69.5651 147.852 73.3611 146.845 76.7855 145.16C84.4842 141.365 90.6452 134.753 95.8659 128.096C101.035 121.506 105.499 114.371 109.599 107.077L108.992 107.52C115.428 106.583 121.863 105.653 128.299 104.716C129.219 104.581 130.139 104.452 131.06 104.316C131.98 104.181 131.854 102.671 130.885 102.813C126.193 103.491 121.5 104.175 116.815 104.854C114.41 105.2 112.011 105.548 109.605 105.901C109.382 105.935 109.147 105.953 108.929 106C108.245 106.145 108.055 106.755 107.727 107.33C106.195 110.031 104.615 112.696 102.959 115.323C98.2181 122.837 92.9232 130.189 86.4547 136.325C82.8413 139.749 78.7456 142.901 74.0683 144.71C72.5746 145.287 71.2481 145.665 69.7007 145.887C69.1016 145.971 68.5066 146.028 67.9036 146.05C67.6501 146.058 67.3911 146.058 67.132 146.059C66.9206 146.06 67.1919 146.068 66.9217 146.053C66.8065 146.049 66.6913 146.044 66.5771 146.034C66.3744 146.022 66.1728 146.005 65.9711 145.987C65.0037 145.897 64.7644 147.391 65.7384 147.481L65.7307 147.487Z" fill="#2C2E2A"/>
</svg>
