<svg width="85" height="25" viewBox="0 0 85 25" fill="none" xmlns="http://www.w3.org/2000/svg">
<path d="M22.3712 23.9578C15.8493 27.4253 -0.807077 14.8446 0.867154 6.97004C0.904538 6.78361 1.50323 4.16622 3.69289 3.02393C8.4443 0.543388 14.645 8.14687 19.4264 5.63391C21.5657 4.50724 20.7521 2.76669 23.1044 1.26753C27.1217 -1.28769 33.2824 1.37999 37.6895 3.29059C45.481 6.66901 46.6347 9.63597 50.4696 9.08388C54.3883 8.51783 54.3612 5.24722 59.1257 3.67831C64.17 2.02006 69.0095 4.09841 72.8062 5.73345C75.1256 6.73457 84.3687 10.7082 84.138 16.0688C84.1261 16.3767 84.0337 18.4785 82.4812 19.6689C77.1381 23.7649 63.6926 10.065 58.1125 14.0319C55.4916 15.8972 57.4719 19.6175 54.9969 21.345C49.3276 25.2953 34.9627 8.55462 27.8951 12.5402C23.7813 14.8646 26.4375 21.7946 22.3712 23.9578Z" fill="#EBC1FF"/>
</svg>
