<svg width="171" height="147" viewBox="0 0 171 147" fill="none" xmlns="http://www.w3.org/2000/svg">
<g clip-path="url(#clip0_8478_15072)">
<path d="M169.046 86.3302C167.738 85.0424 165.929 85.2307 165.652 85.265C165.563 82.2919 164.436 79.3085 164.035 76.332C163.377 75.4517 163.771 73.6295 165.258 72.1841C165.48 72.0813 166.289 71.6806 166.727 70.7283C166.833 70.4954 167.22 69.6289 166.864 68.615C166.463 67.4675 165.429 67.0359 165.261 66.9674C165.148 66.9366 165.035 66.9092 164.919 66.8852C152.358 64.0594 131.879 57.4248 112.126 40.9323C96.4758 27.8651 87.1318 13.4928 81.7988 3.385C80.5246 0.966791 77.8426 -0.365621 75.1504 0.0967843C63.4361 2.09712 48.0671 6.15258 31.6432 14.7191C21.0216 20.2508 9.08123 28.6186 2.32326 34.2326C0.860694 35.4485 0.0078125 37.2433 0.0078125 39.1443V56.6952C0.0078125 57.9968 0.206476 59.2881 0.607227 60.5246C4.54966 72.6225 16.973 92.3621 37.5791 112.492C58.9046 133.324 82.1173 141.997 95.3147 145.669C98.12 146.45 101.114 146.124 103.672 144.737C113.996 139.147 126.46 130.475 138.791 120.5C149.817 111.584 163.525 97.4451 168.33 92.1874C169.121 91.3208 169.875 90.4645 170.077 89.4232C170.279 88.382 169.783 87.0667 169.06 86.3474C169.053 86.3405 169.05 86.3371 169.043 86.3302H169.046Z" fill="#8ED462"/>
<path d="M165.255 72.1812C158.551 77.3327 151.129 82.5733 142.96 87.7111C127.372 97.521 111.098 107.088 97.6681 112.633C96.4658 113.13 95.4348 113.959 94.7053 115.034C93.0372 117.5 91.5712 121.049 92.4994 127.115C93.0543 130.746 95.1505 133.599 96.9419 135.606C97.4215 136.075 98.473 136.969 100.079 137.36C102.34 137.911 104.2 137.113 104.882 136.764C116.983 130.273 130.067 120.703 144.412 108.372C152.848 101.117 159.528 95.4898 165.765 87.2624C165.594 81.6553 165.426 77.7848 165.255 72.1777V72.1812Z" fill="#F5F1E4"/>
<path d="M8.71973 39.6582C8.91177 39.5462 9.19404 39.5501 9.35645 39.7988L10.5381 41.5859C14.2427 47.1291 18.2315 52.4776 22.4941 57.6064C27.5373 63.6768 32.9571 69.4322 38.709 74.835C44.4611 80.2344 50.5457 85.2816 56.9209 89.9277C62.4505 93.9577 68.1924 97.6933 74.1191 101.117C79.0222 103.949 84.0487 106.565 89.1777 108.958C89.3092 109.019 89.3856 109.118 89.4102 109.231C89.434 109.342 89.4071 109.457 89.3506 109.553C89.2381 109.743 88.9899 109.883 88.7236 109.758C88.1482 109.487 87.5723 109.217 87 108.942C81.7302 106.421 76.57 103.659 71.5469 100.675C65.5162 97.0906 59.6806 93.18 54.0781 88.9619C47.6637 84.134 41.5505 78.9124 35.7871 73.3203C30.1881 67.8892 24.9249 62.1148 20.0283 56.043C15.9473 50.982 12.1192 45.7123 8.5625 40.2676L8.56445 40.2656C8.48708 40.1449 8.47266 40.0211 8.50781 39.9111C8.54277 39.8021 8.62343 39.7144 8.71973 39.6582Z" fill="#2C2E2A" stroke="#2C2E2A" stroke-width="0.15"/>
<mask id="mask0_8478_15072" style="mask-type:luminance" maskUnits="userSpaceOnUse" x="92" y="72" width="74" height="66">
<path d="M165.255 72.1812C158.551 77.3327 151.129 82.5733 142.96 87.7111C127.372 97.521 111.098 107.088 97.6681 112.633C96.4658 113.13 95.4348 113.959 94.7053 115.034C93.0372 117.5 91.5712 121.049 92.4994 127.115C93.0543 130.746 95.1505 133.599 96.9419 135.606C97.4215 136.075 98.473 136.969 100.079 137.36C102.34 137.911 104.2 137.113 104.882 136.764C116.983 130.273 130.067 120.703 144.412 108.372C152.848 101.117 159.528 95.4898 165.765 87.2624C165.594 81.6553 165.426 77.7848 165.255 72.1777V72.1812Z" fill="white"/>
</mask>
<g mask="url(#mask0_8478_15072)">
<path d="M91.333 118.606C91.4313 118.546 91.5552 118.532 91.6904 118.584H91.6914C93.0158 119.097 94.2652 119.772 95.3916 120.644C98.0169 122.68 99.6951 125.509 100.239 128.938C100.783 132.367 100.118 135.856 98.6504 138.971C98.5891 139.102 98.49 139.179 98.377 139.203C98.2667 139.227 98.1514 139.2 98.0557 139.144C97.8652 139.031 97.7259 138.783 97.8506 138.517V138.516C98.6455 136.83 99.2008 135.016 99.4121 133.162C99.7599 130.131 99.2277 126.997 97.5908 124.397C96.1573 122.122 93.9426 120.441 91.4463 119.473H91.4443L91.4316 119.468C91.1577 119.361 91.0851 119.085 91.1436 118.872C91.173 118.765 91.2371 118.666 91.333 118.606Z" fill="#2C2E2A" stroke="#2C2E2A" stroke-width="0.15"/>
</g>
</g>
<defs>
<clipPath id="clip0_8478_15072">
<rect width="170.114" height="146.082" fill="white" transform="translate(0.0078125)"/>
</clipPath>
</defs>
</svg>
