<svg width="136" height="124" viewBox="0 0 136 124" fill="none" xmlns="http://www.w3.org/2000/svg">
<g clip-path="url(#clip0_8478_15065)">
<path d="M87.489 82.7709C105.245 81.9385 118.23 76.5198 119.405 68.2685C121.025 56.883 99.5629 44.4152 71.4727 40.4214C69.0305 40.0754 66.6191 39.8049 64.2489 39.6062C85.1188 37.647 101.508 31.1733 100.96 25.0558C100.601 21.0415 93.031 18.1711 81.9676 17.1744C88.8694 16.3558 93.6818 14.0609 93.9832 10.9302C94.4319 6.25135 84.6289 1.48344 72.0858 0.281186C59.5426 -0.921068 49.0135 1.89789 48.5648 6.57675C48.1503 10.9131 56.5421 15.3248 67.7563 16.9038C65.7765 16.9894 63.7522 17.1196 61.6936 17.3046C40.5566 19.1987 23.8689 25.7375 24.4238 31.9097C24.7834 35.9275 32.3566 38.7944 43.4235 39.7911C28.8937 41.4695 18.7174 46.5388 17.6829 53.8003C16.0628 65.1858 37.5253 77.6536 65.6155 81.6474C66.2595 81.7399 66.8966 81.8221 67.5371 81.9043C30.2056 81.9831 0.015625 91.2723 0.015625 102.723C0.015625 114.173 30.4556 123.545 68.0029 123.545C105.55 123.545 135.99 114.221 135.99 102.723C135.99 93.3 115.542 85.3398 87.4959 82.7709H87.489Z" fill="#2BA0FF"/>
<path d="M66.7637 81.3711C68.2901 81.6107 69.8207 81.8123 71.3574 81.9766C76.9633 82.5789 82.6205 82.6845 88.2471 82.3115C88.3924 82.3015 88.5086 82.3514 88.5869 82.4375C88.6634 82.5216 88.6994 82.6348 88.6992 82.7461C88.6987 82.9679 88.553 83.2119 88.2578 83.2324C86.7497 83.3318 85.2408 83.3998 83.7324 83.4307C77.9771 83.5506 72.2217 83.1495 66.5352 82.2617V82.2627C66.3918 82.2406 66.2911 82.1666 66.2373 82.0645C66.185 81.9651 66.1812 81.8472 66.2109 81.7402C66.2703 81.5274 66.474 81.3263 66.7637 81.3711Z" fill="#2C2E2A" stroke="#2C2E2A" stroke-width="0.15"/>
<path d="M64.8799 39.124C65.0252 39.114 65.1414 39.1629 65.2197 39.249C65.2964 39.3333 65.3313 39.4471 65.3311 39.5586C65.3304 39.7803 65.1856 40.0234 64.8906 40.0439C63.6829 40.1287 62.475 40.204 61.2656 40.2666L60.0557 40.3252C54.2238 40.5925 48.3816 40.5856 42.5498 40.3184H42.5488C42.2528 40.3038 42.1069 40.0618 42.1064 39.8398C42.1062 39.7284 42.1417 39.6146 42.2178 39.5293C42.2955 39.4422 42.4112 39.3904 42.5566 39.3975C44.1452 39.4694 45.7372 39.5244 47.3291 39.5586C53.1804 39.6819 59.0388 39.5349 64.8799 39.124Z" fill="#2C2E2A" stroke="#2C2E2A" stroke-width="0.15"/>
<path d="M66.8477 16.3916C72.108 17.3151 77.4953 17.4185 82.79 16.7139C82.9336 16.6948 83.0499 16.7368 83.1289 16.8203C83.2057 16.9015 83.2398 17.0141 83.2393 17.125C83.2381 17.345 83.0971 17.5941 82.8096 17.6328C77.4332 18.3494 71.9713 18.223 66.626 17.2842H66.6162V17.2832C66.4736 17.258 66.3744 17.1819 66.3213 17.0791C66.2695 16.9787 66.2653 16.8602 66.2949 16.7529C66.354 16.5397 66.5576 16.3407 66.8477 16.3916Z" fill="#2C2E2A" stroke="#2C2E2A" stroke-width="0.15"/>
</g>
<defs>
<clipPath id="clip0_8478_15065">
<rect width="135.975" height="123.544" fill="white" transform="translate(0.0078125)"/>
</clipPath>
</defs>
</svg>
