<svg width="311" height="307" viewBox="0 0 311 307" fill="none" xmlns="http://www.w3.org/2000/svg">
<path d="M310.761 30.627C304.69 27.7799 293.758 23.7769 280.189 24.9117C249.567 27.4755 232.854 53.9264 230.757 57.3647C227.278 47.8952 229.613 38.8475 235.198 35.5031C236.227 34.8863 239.015 33.4776 243.62 34.2466C243.46 33.3681 242.305 26.3565 247.027 21.2474C251.56 16.3424 259.617 15.2409 266.402 19.0338C266.715 14.5834 269.161 10.6906 272.743 9.22625C277.824 7.14996 284.833 10.1048 287.519 16.813C290.903 14.7452 293.719 14.6075 295.172 14.677C301.98 15.007 308.4 21.3611 310.76 30.6236L310.761 30.627Z" fill="white"/>
<path d="M0.607422 225.615C7.63624 236.01 18.6956 249.19 35.0849 259.521C84.5188 290.675 138.249 268.106 145.748 264.794C141.53 266.069 134.996 267.296 127.824 264.974C119.108 262.161 115.014 255.923 109.971 257.316C107.746 257.934 104.766 260.193 102.721 268.495C98.2406 259.193 89.8075 255.552 84.9651 257.965C81.0205 259.938 80.1799 265.576 80.0347 266.71C72.3002 247.203 58.1676 237.949 49.9069 240.876C44.3166 242.851 41.9126 250.228 40.9841 254.204C40.2341 246.311 34.9712 240.735 29.9836 240.572C26.0582 240.438 23.3248 243.687 22.6556 244.522C22.4395 241.788 21.6876 238.269 19.1636 236.025C16.9099 234.013 14.6254 234.26 11.3508 233.212C8.50719 232.277 4.68847 230.298 0.607422 225.615Z" fill="white"/>
</svg>
