<svg width="31" height="76" viewBox="0 0 31 76" fill="none" xmlns="http://www.w3.org/2000/svg">
<path d="M24.3155 55.3074C29.7394 43.5539 30.3473 33.6213 25.6546 33.1275C25.319 33.0948 24.9681 33.1045 24.6069 33.1638C22.9066 33.4404 22.0429 32.0011 22.8583 30.491C23.6737 28.981 24.4593 27.4279 25.195 25.8244C31.5068 12.1497 32.209 0.5912 26.7601 0.0166328C21.3113 -0.557937 11.7645 10.0626 5.4528 23.7373C-0.858953 37.412 -1.56108 48.9705 3.88781 49.545C4.59396 49.6181 5.35121 49.5071 6.1746 49.2334C7.93194 48.6308 9.19845 49.7484 8.41288 51.3014C8.04798 52.0215 7.69303 52.7559 7.34801 53.5046C1.92415 65.2581 1.3164 75.1906 6.00906 75.6844C10.7017 76.1782 18.8867 67.0537 24.3155 55.3074Z" fill="#FF705C"/>
</svg>
