<svg width="247" height="58" viewBox="0 0 247 58" fill="none" xmlns="http://www.w3.org/2000/svg">
<path d="M246.984 43.8273C247.109 46.0204 245.932 47.7181 245.5 48.3482C238.24 58.8712 209.37 45.9675 172.775 47.7229C140.967 49.2475 141.457 60.0159 115.902 57.1591C95.8296 54.9131 89.2078 47.5594 67.6617 49.1706C54.6822 50.1421 52.5405 53.148 37.2561 53.6482C20.387 54.2013 0.56957 51.2723 0.0509652 46.2561C-0.217941 43.6445 4.9777 42.8077 13.9669 36.012C27.3065 25.9266 26.2357 19.934 34.7063 15.442C45.6402 9.64666 50.6726 17.3081 68.2571 15.442C87.5176 13.398 88.4539 1.41773 104.516 0.643408C122.062 -0.198243 123.729 13.9751 143.834 16.8223C167.709 20.2034 175.421 1.9612 195.339 8.22308C207.623 12.0851 204.492 18.977 224.804 28.9277C235.344 34.093 246.619 37.349 246.984 43.8273Z" fill="white"/>
</svg>
