<svg width="1512" height="285" viewBox="0 0 1512 285" fill="none" xmlns="http://www.w3.org/2000/svg">
<path d="M-101.993 190.252C-97.0376 187.973 -74.5167 178.267 -47.5684 187.145C-29.5757 193.071 -18.0464 204.503 -11.4966 213.054C-8.02963 217.584 -1.49425 218.21 2.80825 214.468C8.38805 209.615 16.849 204.373 28.1334 203.267C45.8717 201.526 58.9088 211.135 65.5162 217.589C68.5318 220.533 73.0696 221.211 76.8247 219.311C82.9807 216.194 91.773 213.011 102.491 212.833C122.928 212.496 138.087 223.293 146.351 231.089C150.097 234.624 155.907 234.658 159.729 231.205C163.619 227.684 169.165 223.904 176.541 221.773C186.98 218.758 196.224 220.446 202.337 222.5C206.543 223.914 211.153 222.375 213.655 218.7C217.895 212.486 224.8 204.777 235.331 199.823C254.092 190.998 277.405 194.186 296.555 207.629C300.401 210.332 305.587 209.985 308.992 206.744C320.636 195.658 340.876 180.027 369.836 172.395C424.007 158.125 469.188 182.24 483.713 191.219C486.071 192.676 488.923 193.066 491.589 192.306C502.83 189.093 518.383 186.164 536.808 187.145C567.843 188.8 591.29 200.718 604.428 209.062C607.497 211.01 611.396 211.106 614.541 209.293C620.02 206.133 628.692 202.516 639.218 203.271C653.744 204.305 667.074 213.318 675.261 227.025C678.281 232.08 684.961 233.451 689.657 229.911C694.498 226.27 701.076 222.538 709.446 220.484C722.118 217.373 733.033 219.532 739.866 221.788C743.731 223.067 747.995 221.797 750.55 218.623C758.396 208.874 773.47 193.811 796.749 187.145C829.008 177.911 864.951 188.271 891.524 213.472C894.818 216.598 899.817 217.026 903.63 214.559C910.189 210.317 919.197 205.772 930.487 203.267C955.265 197.769 976.081 205.431 986.275 210.346C989.267 211.789 992.796 211.621 995.629 209.884C1005.83 203.623 1021 196.355 1040.38 193.576C1080.5 187.828 1112.4 205.113 1126.52 214.511C1130 216.824 1134.56 216.68 1137.89 214.155C1143.59 209.832 1152.48 204.69 1164.14 203.262C1187.45 200.405 1205.06 214.429 1212.91 222.269C1215.73 225.087 1219.96 225.953 1223.64 224.419C1241.94 216.786 1271.34 208.091 1306.25 212.823C1315.29 214.049 1323.52 216.012 1330.85 218.315C1333.86 219.258 1337.13 218.743 1339.66 216.868C1346.71 211.659 1360.7 203.392 1379.64 203.262C1391.88 203.175 1401.82 206.518 1408.47 209.62C1412.15 211.337 1416.47 210.63 1419.42 207.84C1426.37 201.266 1435.86 194.326 1448.21 189.834C1497.25 171.996 1543.96 209.957 1547.39 212.828V284.993H-101.993V190.248V190.252Z" fill="#8ED462"/>
<path d="M1027.73 219.298C1026.2 201.344 1025.76 179.202 1028.48 154.106C1031.27 128.385 1036.65 106.392 1042.16 88.9141C1046.86 90.3713 1051.55 91.8286 1056.24 93.2859C1050.71 110.297 1044.61 136.215 1045.95 167.904C1046.82 188.465 1050.59 205.904 1054.58 219.298H1027.73Z" fill="#8ED462"/>
<path d="M1028.29 155.924C1027.42 154.005 1010.1 116.949 983.385 116.67C979.99 116.636 968.945 116.516 962.213 124.374C958.535 128.669 955.601 135.98 957.325 142.746C961.44 158.945 988.258 156.424 1010.22 177.778C1019.35 186.657 1024.21 196.323 1026.71 202.297C1028.65 197.107 1030.95 189.162 1031.29 179.24C1031.62 169.323 1029.88 161.239 1028.29 155.929V155.924Z" fill="#8ED462"/>
<path d="M1008.41 56.2913C990.606 61.9664 978.856 71.3929 978.962 80.9781C978.966 81.4398 979.029 84.1427 980.517 86.6581C988.897 100.807 1031.1 89.6687 1033.88 88.9136C1034.27 95.9114 1038.5 101.89 1044.32 103.828C1052 106.396 1061.66 101.644 1064.81 92.2082C1078.28 109.436 1095.35 115.582 1104.44 110.138C1110.1 106.752 1111.52 99.581 1111.75 98.2295C1113.7 87.1678 1105.87 74.5671 1091.6 67.8964C1107.29 57.6764 1115.45 43.1615 1112.23 31.7824C1111.85 30.4406 1109.73 23.539 1103.89 21.2353C1095.56 17.9553 1082.5 25.1454 1073.36 40.93C1075.31 21.2594 1069.41 5.39785 1059.16 1.50702C1058.28 1.17516 1053.46 -0.556231 1048.47 1.50702C1039.73 5.1189 1034.83 18.5613 1037.66 35.1105C1024.49 21.697 1007.78 21.8077 1002.48 28.1705C997.963 33.5908 999.759 45.9077 1008.39 56.2817L1008.41 56.2913Z" fill="#FF705C"/>
<path d="M1072.61 60.7147C1073.13 54.0945 1064.91 48.0521 1054.27 47.2187C1043.63 46.3852 1034.58 51.0763 1034.06 57.6966C1033.54 64.3168 1041.75 70.3592 1052.4 71.1927C1063.04 72.0261 1072.09 67.335 1072.61 60.7147Z" fill="#EBC1FF"/>
<path d="M79.2064 112.605C81.4921 132.04 82.851 154.765 81.9194 180.081C81.1223 201.81 78.7838 221.433 75.8354 238.554H114.971C110.217 222.313 105.814 202.921 103.221 180.841C99.8113 151.807 100.493 126.249 102.491 105.732C94.7309 108.022 86.9663 110.311 79.2064 112.6V112.605Z" fill="#8ED462"/>
<path d="M98.7682 124.082C136.403 114.579 162.654 89.961 157.402 69.0962C152.15 48.2314 117.384 39.0208 79.749 48.5238C42.1144 58.0268 15.863 82.6447 21.115 103.51C26.367 124.374 61.1335 133.585 98.7682 124.082Z" fill="#EBC1FF"/>
<path d="M99.1724 200.872C100.579 196.38 115.441 150.094 136.373 143.51C139.167 142.63 145.309 140.696 150.913 143.611C157.712 147.146 159.398 155.577 159.748 157.342C162.553 171.371 151.782 184.198 144.69 192.643C138.452 200.073 126.337 212.232 105.823 221.023L99.1724 200.877V200.872Z" fill="#8ED462"/>
<path d="M378.917 93.848L390.845 71.2148L418.129 77.1834L378.917 93.848Z" fill="#FF705C"/>
<path d="M451.608 62.9516L427.065 55.8145L412.396 79.6163L451.608 62.9516Z" fill="#FF705C"/>
<path d="M391.21 61.7882C392.333 69.2717 396.04 76.2261 401.61 81.3337C402.124 81.8051 402.888 81.0404 402.374 80.569C396.929 75.572 393.351 68.8148 392.251 61.4996C392.151 60.8119 391.109 61.1053 391.21 61.7882Z" fill="#2C2E2A"/>
<path d="M417.193 50.328C422.297 55.955 425.058 63.3615 424.972 70.9556C424.962 71.653 426.042 71.653 426.052 70.9556C426.139 63.073 423.253 55.3971 417.956 49.5633C417.486 49.0487 416.727 49.8134 417.193 50.328Z" fill="#2C2E2A"/>
<path d="M391.684 63.9217C396.081 62.9599 399.262 60.4237 398.79 58.2569C398.317 56.09 394.37 55.1132 389.973 56.0749C385.576 57.0367 382.395 59.573 382.867 61.7398C383.34 63.9066 387.287 64.8835 391.684 63.9217Z" fill="#2BA0FF"/>
<path d="M418.972 52.1012C422.387 49.1655 423.986 45.4212 422.544 43.7382C421.102 42.0552 417.164 43.0708 413.749 46.0066C410.334 48.9424 408.735 52.6866 410.177 54.3696C411.619 56.0526 415.557 55.037 418.972 52.1012Z" fill="#2BA0FF"/>
<path d="M419.349 129.12C421.61 136.459 423.747 144.625 425.514 153.552C427.704 164.618 428.933 174.858 429.562 184C438.729 186.29 447.896 188.579 457.063 190.868C457.312 180.47 456.462 165.97 451.603 149.55C448.357 138.59 444.136 129.514 440.198 122.449C433.245 124.671 426.297 126.893 419.344 129.115L419.349 129.12Z" fill="#8ED462"/>
<path d="M371.56 79.4095C367.436 101.615 376.939 123.45 394.552 133.674C418.196 147.396 451.877 137.522 463.805 111.585C473.798 89.8556 465.903 62.538 444.391 48.4512C440.42 54.9439 436.448 61.4319 432.472 67.9246C424.746 66.4048 417.02 64.885 409.294 63.3652C405.111 69.9493 400.924 76.5287 396.742 83.108C388.348 81.8719 379.949 80.6408 371.556 79.4047L371.56 79.4095Z" fill="#F5E211"/>
<path d="M109.401 202.513C117.151 191.215 125.309 180.207 133.876 169.52C136.277 166.524 138.712 163.552 141.175 160.603C141.617 160.074 140.858 159.305 140.411 159.839C131.533 170.463 123.048 181.414 114.985 192.668C112.781 195.746 110.611 198.843 108.469 201.965C108.075 202.542 109.012 203.08 109.401 202.513Z" fill="#2C2E2A"/>
<path d="M86.553 178.884C85.6742 176.07 76.3682 147.093 63.259 142.967C61.5063 142.414 57.66 141.207 54.1546 143.029C49.9001 145.242 48.8437 150.522 48.6228 151.624C46.8701 160.406 53.612 168.438 58.0537 173.728C61.9625 178.379 69.5447 185.992 82.3898 191.499L86.553 178.884Z" fill="#8ED462"/>
<path d="M80.9111 179.47C76.0372 172.361 70.8991 165.436 65.5114 158.707C63.9892 156.803 62.443 154.918 60.8824 153.052C60.4358 152.518 59.6771 153.287 60.1189 153.816C65.6555 160.439 70.9423 167.268 75.9651 174.285C77.3241 176.18 78.659 178.094 79.9795 180.013C80.3685 180.586 81.3096 180.042 80.9111 179.465V179.47Z" fill="#2C2E2A"/>
<mask id="mask0_8471_11690" style="mask-type:luminance" maskUnits="userSpaceOnUse" x="20" y="44" width="139" height="84">
<path d="M98.7682 124.084C136.403 114.581 162.654 89.9629 157.402 69.0981C152.15 48.2333 117.384 39.0228 79.749 48.5258C42.1144 58.0287 15.863 82.6466 21.115 103.511C26.367 124.376 61.1335 133.587 98.7682 124.084Z" fill="white"/>
</mask>
<g mask="url(#mask0_8471_11690)">
<path d="M25.1941 77.854C34.2649 78.1618 43.3309 78.4648 52.4017 78.7726C61.4724 79.0804 70.5384 79.3834 79.6092 79.6912C88.7184 79.999 97.8276 80.3068 106.937 80.6146C116.008 80.9224 125.074 81.2254 134.144 81.5332C143.215 81.841 152.281 82.144 161.352 82.4518C162.471 82.4903 163.59 82.5288 164.708 82.5673C165.405 82.5913 165.405 81.5092 164.708 81.4851C155.638 81.1773 146.572 80.8743 137.501 80.5665C128.43 80.2587 119.364 79.9558 110.293 79.648C101.184 79.3402 92.0749 79.0323 82.9657 78.7245C73.8949 78.4167 64.829 78.1137 55.7582 77.8059C46.6874 77.4981 37.6214 77.1951 28.5506 76.8873C27.4318 76.8488 26.3129 76.8104 25.1941 76.7719C24.4978 76.7478 24.4978 77.83 25.1941 77.854Z" fill="#2C2E2A"/>
<path d="M108.411 35.6845C103.071 48.7325 97.7313 61.7805 92.3916 74.8285C87.0519 87.8765 81.7122 100.925 76.3725 113.972C73.3713 121.312 70.3653 128.651 67.3641 135.99C67.1 136.634 68.1468 136.913 68.4061 136.279C73.7459 123.231 79.0856 110.183 84.4253 97.1347C89.765 84.0867 95.1047 71.0387 100.444 57.9907C103.446 50.6515 106.452 43.3123 109.453 35.9731C109.717 35.3286 108.67 35.0497 108.411 35.6845Z" fill="#2C2E2A"/>
<path d="M18.9612 118.677C27.8591 113.925 36.757 109.168 45.6501 104.417C54.5096 99.6842 63.3739 94.9469 72.2334 90.2144C81.0929 85.4819 89.9572 80.7446 98.8167 76.0122C107.676 71.2797 116.613 66.5039 125.506 61.7522C134.399 57.0004 143.229 52.2824 152.089 47.5499C153.184 46.9631 154.279 46.3813 155.373 45.7945C155.988 45.4675 155.441 44.5344 154.826 44.8614C145.928 49.6132 137.03 54.3697 128.137 59.1214C119.278 63.8539 110.413 68.5912 101.554 73.3237C92.6943 78.0562 83.83 82.7935 74.9705 87.526C66.0726 92.2777 57.1747 97.0342 48.2816 101.786C39.3884 106.538 30.5578 111.256 21.6983 115.988C20.6034 116.575 19.5086 117.157 18.4137 117.744C17.7991 118.071 18.3465 119.004 18.9612 118.677Z" fill="#2C2E2A"/>
<path d="M65.6068 47.3132C72.8529 56.7589 80.099 66.2095 87.345 75.6552C94.5911 85.1009 101.837 94.5515 109.083 103.997C113.17 109.321 117.251 114.65 121.338 119.974C121.755 120.518 122.697 119.979 122.269 119.426C115.023 109.98 107.777 100.53 100.531 91.0838C93.285 81.6381 86.0389 72.1876 78.7928 62.7419C74.7064 57.4178 70.6248 52.089 66.5384 46.7649C66.1207 46.2215 65.1795 46.7601 65.6068 47.3132Z" fill="#2C2E2A"/>
</g>
<path d="M92.3706 96.6925C106.684 93.0783 116.668 83.7156 114.67 75.7802C112.673 67.8448 99.4504 64.3418 85.1371 67.9559C70.8239 71.5701 60.84 80.9329 62.8374 88.8683C64.8349 96.8037 78.0573 100.307 92.3706 96.6925Z" fill="#F5E211"/>
<path d="M1021.81 169.578C1018.38 164.148 1014.44 159.031 1010.02 154.371C1004.19 148.215 997.516 142.852 990.222 138.528C985.867 135.946 981.291 133.748 976.57 131.915C975.922 131.665 975.639 132.709 976.282 132.959C984.609 136.186 992.46 140.644 999.471 146.185C1005.35 150.831 1010.64 156.208 1015.26 162.119C1017.27 164.692 1019.13 167.371 1020.88 170.126C1021.25 170.713 1022.18 170.17 1021.81 169.578Z" fill="#2C2E2A"/>
<path d="M1047.96 192.801C1048.58 197.736 1050.7 202.353 1054.05 206.027C1054.52 206.542 1055.28 205.777 1054.81 205.262C1051.67 201.814 1049.63 197.433 1049.04 192.801C1048.95 192.118 1047.87 192.113 1047.96 192.801Z" fill="#2C2E2A"/>
<path d="M1023.79 197.226C1024.91 201.213 1025.28 205.369 1024.87 209.49C1024.81 210.183 1025.89 210.178 1025.95 209.49C1026.36 205.277 1025.98 201.011 1024.83 196.938C1024.64 196.269 1023.6 196.553 1023.79 197.226Z" fill="#2C2E2A"/>
<path d="M427.656 170.381C428.862 180.062 428.828 189.898 427.493 199.565C427.162 201.979 426.744 204.379 426.259 206.764C426.12 207.443 427.162 207.736 427.301 207.053C429.246 197.54 429.98 187.786 429.438 178.086C429.294 175.513 429.058 172.94 428.741 170.381C428.655 169.698 427.575 169.688 427.661 170.381H427.656Z" fill="#2C2E2A"/>
<path d="M456.242 178.25C456.458 182.91 456.458 187.575 456.242 192.236C456.208 192.933 457.289 192.928 457.322 192.236C457.538 187.575 457.538 182.91 457.322 178.25C457.289 177.557 456.208 177.552 456.242 178.25Z" fill="#2C2E2A"/>
<path d="M78.2938 218.336C77.7416 225.035 76.2674 231.634 73.9385 237.939C73.6984 238.593 74.7404 238.877 74.9805 238.228C77.3478 231.831 78.8172 225.136 79.3742 218.336C79.4319 217.643 78.3514 217.643 78.2938 218.336Z" fill="#2C2E2A"/>
<path d="M1471.56 102.89C1469.78 118.04 1468.72 135.758 1469.45 155.491C1470.07 172.43 1471.89 187.728 1474.19 201.075C1464.02 201.075 1453.85 201.075 1443.68 201.075C1447.39 188.411 1450.83 173.3 1452.85 156.087C1455.5 133.454 1454.97 113.528 1453.41 97.5371C1459.46 99.3214 1465.51 101.106 1471.56 102.89H1471.56Z" fill="#8ED462"/>
<path d="M1516.69 95.6896C1520.78 79.4247 1500.32 60.2345 1470.98 52.8269C1441.64 45.4193 1414.54 52.5995 1410.45 68.8643C1406.36 85.1291 1426.82 104.319 1456.15 111.727C1485.49 119.135 1512.59 111.954 1516.69 95.6896Z" fill="#F5E211"/>
<path d="M1456 171.699C1454.9 168.197 1443.31 132.117 1427 126.981C1424.82 126.293 1420.03 124.787 1415.67 127.057C1410.36 129.813 1409.05 136.383 1408.78 137.758C1406.59 148.695 1414.99 158.694 1420.52 165.278C1425.38 171.069 1434.83 180.548 1450.82 187.401C1452.54 182.164 1454.27 176.931 1456 171.694L1456 171.699Z" fill="#8ED462"/>
<path d="M1448.86 172.493C1442.8 163.662 1436.42 155.058 1429.73 146.704C1427.82 144.324 1425.89 141.967 1423.94 139.63C1423.49 139.096 1422.73 139.865 1423.17 140.394C1430.07 148.652 1436.66 157.165 1442.93 165.913C1444.61 168.27 1446.28 170.646 1447.92 173.041C1448.31 173.613 1449.25 173.07 1448.85 172.493H1448.86Z" fill="#2C2E2A"/>
<mask id="mask1_8471_11690" style="mask-type:luminance" maskUnits="userSpaceOnUse" x="1409" y="49" width="109" height="66">
<path d="M1516.69 95.6896C1520.78 79.4247 1500.32 60.2345 1470.98 52.8269C1441.64 45.4193 1414.54 52.5995 1410.45 68.8643C1406.36 85.1291 1426.82 104.319 1456.15 111.727C1485.49 119.135 1512.59 111.954 1516.69 95.6896Z" fill="white"/>
</mask>
<g mask="url(#mask1_8471_11690)">
<path d="M1513.67 74.8344C1499.54 75.3105 1485.4 75.7914 1471.27 76.2676C1457.14 76.7437 1443 77.2246 1428.87 77.7008C1420.88 77.9701 1412.9 78.2394 1404.91 78.5087C1404.22 78.5328 1404.21 79.6149 1404.91 79.5909C1419.04 79.1147 1433.18 78.6338 1447.31 78.1577C1461.44 77.6815 1475.58 77.2006 1489.71 76.7245C1497.7 76.4551 1505.68 76.1858 1513.67 75.9165C1514.36 75.8925 1514.36 74.8103 1513.67 74.8344Z" fill="#2C2E2A"/>
<path d="M1447.87 43.184C1452.04 53.3656 1456.2 63.5472 1460.37 73.7287C1464.52 83.8718 1468.67 94.0149 1472.82 104.163C1475.17 109.901 1477.51 115.638 1479.86 121.381C1480.12 122.015 1481.17 121.736 1480.9 121.092C1476.74 110.91 1472.57 100.729 1468.41 90.5473C1464.26 80.4042 1460.1 70.2611 1455.95 60.1132C1453.61 54.3756 1451.26 48.6379 1448.91 42.8955C1448.65 42.2606 1447.6 42.5396 1447.87 43.184Z" fill="#2C2E2A"/>
<path d="M1519.01 106.789C1505.13 99.3724 1491.25 91.9563 1477.36 84.5353C1463.47 77.1143 1449.74 69.7751 1435.92 62.3975C1428.17 58.2565 1420.42 54.1156 1412.66 49.9747C1412.05 49.6477 1411.5 50.5807 1412.12 50.9078C1426 58.3239 1439.88 65.74 1453.77 73.161C1467.66 80.5819 1481.39 87.9211 1495.21 95.2988C1502.96 99.4397 1510.71 103.581 1518.46 107.722C1519.08 108.049 1519.63 107.116 1519.01 106.789Z" fill="#2C2E2A"/>
<path d="M1481.34 51.5052C1475.7 58.854 1470.06 66.2028 1464.42 73.5564C1458.79 80.91 1453.1 88.3214 1447.44 95.699C1444.26 99.8496 1441.07 104 1437.89 108.151C1437.47 108.704 1438.4 109.242 1438.82 108.699C1444.46 101.35 1450.1 94.0013 1455.73 86.6477C1461.39 79.2652 1467.06 71.8827 1472.72 64.505C1475.9 60.3545 1479.08 56.204 1482.27 52.0534C1482.69 51.5004 1481.75 50.9617 1481.34 51.5052Z" fill="#2C2E2A"/>
</g>
<path d="M1484.16 84.2707C1485.71 78.0841 1477.93 70.7849 1466.77 67.9675C1455.62 65.15 1445.31 67.8812 1443.75 74.0678C1442.19 80.2543 1449.98 87.5535 1461.13 90.371C1472.29 93.1884 1482.6 90.4572 1484.16 84.2707Z" fill="#2BA0FF"/>
<path d="M1471.31 185.314C1471.75 190.624 1472.89 195.852 1474.74 200.854C1474.98 201.503 1476.02 201.219 1475.78 200.565C1473.97 195.659 1472.82 190.528 1472.39 185.314C1472.33 184.627 1471.25 184.617 1471.31 185.314Z" fill="#2C2E2A"/>
</svg>
