<svg xmlns="http://www.w3.org/2000/svg" version="1.1" viewBox="0 0 1512 432">
  <path fill="#63AB36" d="M1512,432V25.9c-31.5-4.6-61.2,3.3-79.4,22-3.8,3.9-9.2,10.4-13.6,20.3-3.5,7.9-12.9,11.3-20.7,7.4-19.3-9.7-52.7-21.7-94.1-16.5-45.3,5.7-76.5,28.9-92.9,44.4-6.2,5.9-16,5.5-21.8-.9-11.3-12.5-31.8-29.5-60.7-31.3-32.2-1.9-63.8,15.8-82.2,45.4-5.4,8.7-17.7,9.8-24.4,2.1-7.4-8.5-18-17.4-32.5-23-26.9-10.4-58-5.6-83,11.9-5.9,4.1-13.9,3.7-19.2-1.3-28.1-26.2-65.3-37.8-99.7-29.6-21.3,5.1-36.8,16.7-46.5,26-5.1,4.9-12.9,5.7-18.9,1.8-10.5-6.9-26.6-14.7-47.1-15.5-36.1-1.4-62.4,20.1-76.5,35.5-6,6.6-16.3,6.6-22.4,0-13.1-14.3-30.7-22-48-20.1-5.6.6-10.5,2.1-14.8,4.1-7.9,3.6-17.2-.4-20.3-8.5-10.4-27.2-33.2-44.9-56.5-45.3-11.6-.2-21.6,4-29.1,8.8-7.3,4.6-17.1,2.1-21.3-5.5-9.8-17.9-27.3-30.3-47.1-32.6-18.7-2.2-33.7,5.4-43.3,12.4-6.6,4.8-15.7,3.6-20.8-2.8-8.9-11.2-22-23.3-40.2-29.8-40.5-14.2-92.3,4.8-128.2,50-5.4,6.8-15.4,7.8-21.9,2-12.3-10.9-27.7-15.7-41.8-12.6-3.7.8-7,2.1-9.9,3.7-7.5,4-16.7,1-20.6-6.5-2.9-5.7-7-11.7-12.7-16.9v407h1512Z"/>
</svg>
