<svg width="517" height="104" viewBox="0 0 517 104" fill="none" xmlns="http://www.w3.org/2000/svg">
<path d="M412.53 90.3255C375.191 87.9112 364.675 96.5586 329.237 99.3577C285.664 102.801 283.897 91.1191 234.231 89.1472C174.26 86.7714 170.164 103.537 108.071 103.277C54.8514 103.056 0.738752 90.4987 0.676328 79.7256C0.642714 74.137 15.1733 73.6464 38.8803 62.0605C91.0721 36.5561 93.8523 3.16419 122.985 0.187155C154.447 -3.02555 158.025 35.2287 201.597 43.448C241.703 51.0132 249.789 20.6994 292.387 27.8606C332.924 34.6756 337.352 64.0997 371.628 60.6225C397.255 58.0206 406.48 40.3892 430.432 46.3096C444.967 49.9023 445.284 57.3136 466.033 66.7641C494.955 79.9372 516.563 75.6616 516.789 79.7207C517.034 84.1647 491.224 91.4413 463.551 93.1775C441.323 94.5723 431.416 91.5423 412.526 90.3207L412.53 90.3255Z" fill="white"/>
</svg>
