<svg width="184" height="211" viewBox="0 0 184 211" fill="none" xmlns="http://www.w3.org/2000/svg">
<path d="M177.967 7.05139C160.454 -11.2784 98.1678 9.72557 95.6146 32.8449C94.0254 47.2622 116.769 52.6504 115.513 67.4779C113.339 92.9361 44.2983 100.593 44.5135 122.351C44.6141 131.856 57.8062 133.306 58.0066 143.436C58.4231 164.992 -1.07653 175.654 0.0975123 196.823C0.439038 202.974 5.7441 206.942 6.52408 207.519C20.0595 217.634 46.8005 200.64 53.5195 196.384C64.5106 189.409 78.5045 180.51 83.1427 164.445C87.5176 149.266 78.9613 143.533 84.4436 132.334C89.813 121.378 99.5774 123.642 122.194 109.368C134.985 101.295 152.857 90.0044 153.339 75.0194C153.614 66.2392 147.643 65.2671 148.509 57.702C150.457 40.8045 181.239 38.1692 183.218 21.4071C184.134 13.677 178.377 7.47023 177.967 7.05139Z" fill="#F5E211"/>
</svg>
